<svg width="907" height="293" viewBox="0 0 907 293" fill="none" xmlns="http://www.w3.org/2000/svg">
<path d="M0 145.571V290.238L69.0667 289.704C144.4 289.171 144.933 289.038 166.667 280.771C199.333 268.104 216.933 239.438 214.267 203.038C212 171.704 192.267 148.504 162.267 141.971C158 141.038 154.267 139.971 154 139.438C153.733 138.904 156 137.704 159.067 136.771C179.467 130.638 194.8 114.104 200.533 91.9711C203.2 81.4378 203.333 61.0378 200.667 50.7711C195.067 29.5711 179.067 14.2378 154.667 6.90445C137.333 1.57111 124.133 0.771118 61.0667 0.771118H0V145.571ZM136.133 38.9044C157.733 46.6378 165.333 56.6378 165.333 77.5711C165.333 101.304 152.133 116.904 127.333 122.238C121.867 123.438 106.667 123.971 78.6667 123.971L38 124.104L37.6 79.7045L37.3333 35.1711L82.9333 35.7045C124.533 36.2378 129.333 36.5044 136.133 38.9044ZM130 160.104C144 162.638 147.867 163.838 156.133 168.238C170.133 175.971 176.667 188.238 176.533 206.771C176.533 227.438 170.4 238.504 154.667 246.504C138.667 254.504 130.133 255.571 80.6667 255.171L38 254.771L37.6 206.371L37.3333 158.104H78.2667C108.4 158.104 122.133 158.638 130 160.104Z" fill="white"/>
<path d="M324.4 4.23778C316.133 8.23778 312.4 12.9044 305.6 27.5711C302.8 33.7044 296.8 43.3044 292.4 48.7711C276.934 68.1044 236.267 105.304 204.4 129.171C198.4 133.704 193.333 138.238 193.333 139.038C193.333 140.238 195.333 140.771 199.067 140.771C204 140.771 206.267 139.704 214.8 133.304C241.867 112.638 249.867 109.171 279.2 104.904C304 101.438 322 83.4378 324.934 59.4378C325.734 52.7711 326.534 50.6378 328.4 50.3711C330.267 49.9711 330.667 50.9044 330.667 55.0378C330.667 57.8378 329.867 63.1711 328.8 67.0378C324.133 84.6378 314 96.5044 297.2 104.371C291.467 107.038 286.667 109.838 286.667 110.371C286.667 112.238 293.733 113.438 303.6 113.171C321.734 112.904 338.133 101.571 347.067 83.0378C353.467 69.9711 354.8 61.9711 354.534 39.4378C354.267 18.1044 355.734 10.2378 360.8 5.17111C362.534 3.43777 364 1.83778 364 1.57111C364 1.43777 356.667 1.17111 347.6 1.03778C332.4 0.771118 330.667 1.03778 324.4 4.23778ZM346.667 10.7711C348 12.3711 348 13.5711 346.934 16.1044C345.2 19.9711 341.2 20.5044 338.133 17.3044C335.6 14.9044 335.6 14.6378 337.333 11.3044C339.067 8.23778 344.267 7.97112 346.667 10.7711Z" fill="white"/>
<path d="M390.667 145.438V290.104H409.333H428V232.104V174.104H461.733H495.333L531.067 229.438C550.8 259.838 567.867 285.971 569.067 287.438C571.2 289.971 572.667 290.104 592.667 289.838L614 289.438L573.733 230.771C551.6 198.504 533.333 171.438 533.333 170.638C533.333 169.838 537.333 168.104 542.267 166.771C569.867 159.304 589.067 141.171 598.667 113.704C602.667 102.238 603.733 78.5045 600.8 64.7711C595.067 37.4378 575.467 16.6378 547.333 7.57114C528.267 1.43781 519.467 0.771149 452.533 0.771149H390.667V145.438ZM526 38.5045C543.867 43.7045 555.733 52.7711 561.733 65.8378C564.133 71.0378 564.667 74.6378 564.667 86.1045C564.667 98.5045 564.267 101.038 561.067 107.704C553.867 123.304 540.533 133.038 520.933 137.438C513.067 139.171 503.867 139.438 470 139.171L428.667 138.771L428.267 88.7711C428.133 61.3045 428.267 37.9711 428.667 37.0378C429.2 35.5712 437.867 35.3045 473.6 35.7045C510.667 36.1045 519.333 36.6378 526 38.5045Z" fill="white"/>
<path d="M670.667 145.438V290.104H728.4C790.4 290.104 800.933 289.304 819.333 283.038C839.733 276.104 853.733 267.038 868.667 251.171C889.2 229.438 901.333 201.171 905.2 165.704C909.867 123.838 902.133 84.1045 883.867 56.1045C864.667 26.6378 834.533 9.30447 791.333 2.77115C781.2 1.30447 765.2 0.771149 724.4 0.771149H670.667V145.438ZM796.667 39.3045C818.533 45.4378 837.867 57.3045 848 70.6378C854.4 79.0378 861.867 94.7711 864.667 105.438C869.867 125.304 869.467 161.704 864 182.104C862.4 187.571 858.533 197.704 855.2 204.638C846.8 221.838 832.4 236.638 816 244.638C796.133 254.238 792.533 254.771 748 254.771H708.667L708.267 144.904L708 35.1711L746.933 35.7045C782.133 36.3711 787.067 36.6378 796.667 39.3045Z" fill="white"/>
<path d="M278 122.371C277.6 123.304 277.466 161.838 277.6 208.104L278 292.104H298H318V206.771V121.438L298.266 121.038C283.333 120.771 278.4 121.038 278 122.371Z" fill="white"/>
</svg>
