<svg width="908" height="292" viewBox="0 0 908 292" fill="none" xmlns="http://www.w3.org/2000/svg">
<path d="M0.666504 144.8V289.467L69.7332 288.933C145.067 288.4 145.6 288.267 167.333 280C200 267.333 217.6 238.667 214.933 202.267C212.667 170.933 192.933 147.733 162.933 141.2C158.667 140.267 154.933 139.2 154.667 138.667C154.4 138.133 156.667 136.933 159.733 136C180.133 129.867 195.467 113.333 201.2 91.2C203.867 80.6667 204 60.2667 201.333 50C195.733 28.8 179.733 13.4667 155.333 6.13333C138 0.799993 124.8 -6.95884e-06 61.7332 -6.95884e-06H0.666504V144.8ZM136.8 38.1333C158.4 45.8667 166 55.8667 166 76.8C166 100.533 152.8 116.133 128 121.467C122.533 122.667 107.333 123.2 79.3332 123.2L38.6665 123.333L38.2665 78.9333L37.9998 34.4L83.5998 34.9333C125.2 35.4667 130 35.7333 136.8 38.1333ZM130.667 159.333C144.667 161.867 148.533 163.067 156.8 167.467C170.8 175.2 177.333 187.467 177.2 206C177.2 226.667 171.067 237.733 155.333 245.733C139.333 253.733 130.8 254.8 81.3332 254.4L38.6665 254L38.2665 205.6L37.9998 157.333H78.9332C109.067 157.333 122.8 157.867 130.667 159.333Z" fill="#24348C"/>
<path d="M325.067 3.46666C316.8 7.46666 313.067 12.1333 306.267 26.8C303.467 32.9333 297.467 42.5333 293.067 48C277.6 67.3333 236.933 104.533 205.067 128.4C199.067 132.933 194 137.467 194 138.267C194 139.467 196 140 199.733 140C204.667 140 206.933 138.933 215.467 132.533C242.533 111.867 250.533 108.4 279.867 104.133C304.667 100.667 322.667 82.6667 325.6 58.6667C326.4 52 327.2 49.8667 329.067 49.6C330.933 49.2 331.333 50.1333 331.333 54.2667C331.333 57.0667 330.533 62.4 329.467 66.2667C324.8 83.8667 314.667 95.7333 297.867 103.6C292.133 106.267 287.333 109.067 287.333 109.6C287.333 111.467 294.4 112.667 304.267 112.4C322.4 112.133 338.8 100.8 347.733 82.2667C354.133 69.2 355.467 61.2 355.2 38.6667C354.933 17.3333 356.4 9.46666 361.467 4.39999C363.2 2.66666 364.667 1.06666 364.667 0.799993C364.667 0.666659 357.333 0.399993 348.267 0.266659C333.067 -7.30157e-06 331.333 0.266659 325.067 3.46666ZM347.333 9.99999C348.667 11.6 348.667 12.8 347.6 15.3333C345.867 19.2 341.867 19.7333 338.8 16.5333C336.267 14.1333 336.267 13.8667 338 10.5333C339.733 7.46666 344.933 7.19999 347.333 9.99999Z" fill="#24348C"/>
<path d="M391.333 144.667V289.333H410H428.666V231.333V173.333H462.4H496L531.733 228.667C551.466 259.067 568.533 285.2 569.733 286.667C571.866 289.2 573.333 289.333 593.333 289.067L614.666 288.667L574.4 230C552.266 197.733 534 170.667 534 169.867C534 169.067 538 167.333 542.933 166C570.533 158.533 589.733 140.4 599.333 112.933C603.333 101.467 604.4 77.7334 601.466 64C595.733 36.6667 576.133 15.8667 548 6.80003C528.933 0.666692 520.133 2.56002e-05 453.2 2.56002e-05H391.333V144.667ZM526.666 37.7334C544.533 42.9334 556.4 52 562.4 65.0667C564.8 70.2667 565.333 73.8667 565.333 85.3334C565.333 97.7334 564.933 100.267 561.733 106.933C554.533 122.533 541.2 132.267 521.6 136.667C513.733 138.4 504.533 138.667 470.666 138.4L429.333 138L428.933 88C428.8 60.5334 428.933 37.2 429.333 36.2667C429.866 34.8 438.533 34.5334 474.266 34.9334C511.333 35.3334 520 35.8667 526.666 37.7334Z" fill="#24348C"/>
<path d="M671.333 144.667V289.333H729.066C791.066 289.333 801.6 288.533 820 282.267C840.4 275.333 854.4 266.267 869.333 250.4C889.866 228.667 902 200.4 905.866 164.933C910.533 123.067 902.8 83.3334 884.533 55.3334C865.333 25.8667 835.2 8.53336 792 2.00003C781.866 0.533359 765.866 2.56002e-05 725.066 2.56002e-05H671.333V144.667ZM797.333 38.5334C819.2 44.6667 838.533 56.5334 848.666 69.8667C855.066 78.2667 862.533 94 865.333 104.667C870.533 124.533 870.133 160.933 864.666 181.333C863.066 186.8 859.2 196.933 855.866 203.867C847.466 221.067 833.066 235.867 816.666 243.867C796.8 253.467 793.2 254 748.666 254H709.333L708.933 144.133L708.666 34.4L747.6 34.9334C782.8 35.6 787.733 35.8667 797.333 38.5334Z" fill="#24348C"/>
<path d="M278.666 121.6C278.266 122.533 278.133 161.067 278.266 207.333L278.666 291.333H298.666H318.666V206V120.667L298.933 120.267C284 120 279.066 120.267 278.666 121.6Z" fill="#24348C"/>
</svg>
