<svg width="907" height="293" viewBox="0 0 907 293" fill="none" xmlns="http://www.w3.org/2000/svg">
<path d="M0 145.571V290.238L69.0667 289.704C144.4 289.171 144.933 289.038 166.667 280.771C199.333 268.104 216.933 239.438 214.267 203.038C212 171.704 192.267 148.504 162.267 141.971C158 141.038 154.267 139.971 154 139.438C153.733 138.904 156 137.704 159.067 136.771C179.467 130.638 194.8 114.104 200.533 91.9711C203.2 81.4378 203.333 61.0378 200.667 50.7711C195.067 29.5711 179.067 14.2378 154.667 6.90444C137.333 1.57111 124.133 0.771111 61.0667 0.771111H0V145.571ZM136.133 38.9044C157.733 46.6378 165.333 56.6378 165.333 77.5711C165.333 101.304 152.133 116.904 127.333 122.238C121.867 123.438 106.667 123.971 78.6667 123.971L38 124.104L37.6 79.7044L37.3333 35.1711L82.9333 35.7044C124.533 36.2378 129.333 36.5044 136.133 38.9044ZM130 160.104C144 162.638 147.867 163.838 156.133 168.238C170.133 175.971 176.667 188.238 176.533 206.771C176.533 227.438 170.4 238.504 154.667 246.504C138.667 254.504 130.133 255.571 80.6667 255.171L38 254.771L37.6 206.371L37.3333 158.104H78.2667C108.4 158.104 122.133 158.638 130 160.104Z" fill="black"/>
<path d="M324.4 4.2379C316.134 8.2379 312.4 12.9046 305.6 27.5712C302.8 33.7046 296.8 43.3046 292.4 48.7712C276.934 68.1046 236.267 105.305 204.4 129.171C198.4 133.705 193.333 138.238 193.333 139.038C193.333 140.238 195.333 140.771 199.067 140.771C204 140.771 206.267 139.705 214.8 133.305C241.867 112.638 249.867 109.171 279.2 104.905C304 101.438 322 83.4379 324.934 59.4379C325.734 52.7712 326.534 50.6379 328.4 50.3712C330.267 49.9712 330.667 50.9046 330.667 55.0379C330.667 57.8379 329.867 63.1712 328.8 67.0379C324.134 84.6379 314 96.5046 297.2 104.371C291.467 107.038 286.667 109.838 286.667 110.371C286.667 112.238 293.734 113.438 303.6 113.171C321.734 112.905 338.134 101.571 347.067 83.0379C353.467 69.9712 354.8 61.9712 354.534 39.4379C354.267 18.1046 355.734 10.2379 360.8 5.17123C362.534 3.4379 364 1.8379 364 1.57123C364 1.4379 356.667 1.17123 347.6 1.0379C332.4 0.771233 330.667 1.0379 324.4 4.2379ZM346.667 10.7712C348 12.3712 348 13.5712 346.934 16.1046C345.2 19.9712 341.2 20.5046 338.134 17.3046C335.6 14.9046 335.6 14.6379 337.334 11.3046C339.067 8.2379 344.267 7.97123 346.667 10.7712Z" fill="black"/>
<path d="M390.667 145.438V290.104H409.333H428V232.104V174.104H461.733H495.333L531.067 229.438C550.8 259.838 567.867 285.971 569.067 287.438C571.2 289.971 572.667 290.104 592.667 289.838L614 289.438L573.733 230.771C551.6 198.504 533.333 171.438 533.333 170.638C533.333 169.838 537.333 168.104 542.267 166.771C569.867 159.304 589.067 141.171 598.667 113.704C602.667 102.238 603.733 78.5045 600.8 64.7711C595.067 37.4378 575.467 16.6378 547.333 7.57114C528.267 1.43781 519.467 0.771144 452.533 0.771144H390.667V145.438ZM526 38.5045C543.867 43.7045 555.733 52.7711 561.733 65.8378C564.133 71.0378 564.667 74.6378 564.667 86.1045C564.667 98.5045 564.267 101.038 561.067 107.704C553.867 123.304 540.533 133.038 520.933 137.438C513.067 139.171 503.867 139.438 470 139.171L428.667 138.771L428.267 88.7711C428.133 61.3045 428.267 37.9711 428.667 37.0378C429.2 35.5711 437.867 35.3045 473.6 35.7045C510.667 36.1045 519.333 36.6378 526 38.5045Z" fill="black"/>
<path d="M670.667 145.438V290.104H728.4C790.4 290.104 800.933 289.304 819.333 283.038C839.733 276.104 853.733 267.038 868.667 251.171C889.2 229.438 901.333 201.171 905.2 165.704C909.867 123.838 902.133 84.1045 883.867 56.1045C864.667 26.6378 834.533 9.30448 791.333 2.77114C781.2 1.30448 765.2 0.771144 724.4 0.771144H670.667V145.438ZM796.667 39.3045C818.533 45.4378 837.867 57.3045 848 70.6378C854.4 79.0378 861.867 94.7711 864.667 105.438C869.867 125.304 869.467 161.704 864 182.104C862.4 187.571 858.533 197.704 855.2 204.638C846.8 221.838 832.4 236.638 816 244.638C796.133 254.238 792.533 254.771 748 254.771H708.667L708.267 144.904L708 35.1711L746.933 35.7045C782.133 36.3711 787.067 36.6378 796.667 39.3045Z" fill="black"/>
<path d="M278 122.371C277.6 123.304 277.466 161.838 277.6 208.104L278 292.104H298H318V206.771V121.438L298.266 121.038C283.333 120.771 278.4 121.038 278 122.371Z" fill="black"/>
</svg>
