<svg width="544" height="196" viewBox="0 0 544 196" fill="none" xmlns="http://www.w3.org/2000/svg">
<path d="M207.863 63.1215C204.063 57.5215 199.263 53.8215 192.863 51.8215C191.963 51.5215 191.063 51.4215 190.163 51.2215C189.463 51.3215 188.663 51.2215 187.963 51.1215C184.963 51.1215 181.963 51.6215 179.363 53.4215C178.363 54.1215 177.563 54.2215 176.863 52.7215C175.563 49.8215 174.063 47.0215 172.663 44.2215C168.763 38.7215 165.463 32.7215 160.763 27.8215C150.963 17.6215 139.463 10.1215 125.863 5.62151C115.963 2.32151 105.963 0.521511 95.7632 0.121511C84.3632 -0.278489 72.8632 0.121513 61.9632 4.22151C54.8632 6.92151 47.2632 7.42151 39.8632 8.72151C37.0632 9.22151 35.5632 10.0215 35.7632 13.3215C35.9632 18.1215 31.7632 20.3215 28.8632 23.1215C28.3632 23.6215 27.5632 24.0215 26.9632 24.4215C26.5632 24.8215 26.2632 25.2215 25.8632 25.6215C25.9632 26.4215 25.4632 26.9215 24.9632 27.4215C15.9632 38.1215 8.46324 49.6215 4.16324 63.0215C-1.43676 80.9215 -1.43677 98.8215 4.46323 116.722C5.66323 120.522 7.06323 124.222 8.36323 127.922C11.9632 134.922 15.8632 141.722 20.8632 147.822C23.0632 150.522 25.2632 153.122 27.7632 155.422C37.3632 164.322 43.9632 175.522 51.4632 186.022C53.7632 189.322 55.4632 193.122 59.1632 195.222C59.6632 194.822 60.2632 194.322 60.7632 193.922C60.7632 193.722 60.8632 193.522 60.9632 193.422C61.3632 192.822 61.7632 192.222 62.2632 191.722C67.5632 184.022 72.7632 176.322 78.0632 168.622C79.0632 167.122 79.8632 165.522 80.3632 163.822C80.4632 162.222 80.6632 160.722 80.7632 159.122C80.7632 158.322 80.7632 157.522 80.7632 156.722C80.7632 154.322 80.7632 151.922 80.7632 149.522C80.9632 136.922 81.2632 124.422 81.3632 111.822C81.3632 109.322 81.9632 108.622 84.7632 108.722C95.9632 108.822 107.063 108.422 118.263 108.222C118.763 108.222 119.263 108.222 119.763 108.222C121.363 108.122 123.563 107.922 124.163 109.222C124.763 110.422 122.663 111.422 121.663 112.522C112.963 121.422 104.363 130.422 95.6632 139.222C90.6632 144.322 88.2632 150.422 87.3632 157.322C86.0632 166.722 84.3632 176.022 81.9632 185.222C81.3632 187.522 81.3632 188.622 82.3632 188.822C84.2632 188.422 86.1632 188.022 87.9632 187.322C89.3632 186.822 90.6632 186.322 92.1632 186.022C93.0632 185.822 93.8632 185.522 94.7632 185.322C99.7632 183.522 104.763 181.522 109.763 179.822C110.563 179.522 111.363 179.222 112.163 178.922C112.263 178.922 112.263 178.822 112.363 178.822C114.963 177.422 117.863 176.722 120.563 175.522C123.063 174.422 125.563 173.322 128.063 172.322C130.263 171.322 132.463 170.222 134.663 169.222C138.263 167.222 141.963 165.222 145.563 163.222C147.363 161.822 149.163 160.522 150.963 159.122C151.863 158.122 152.863 157.222 153.963 156.422C153.963 156.322 153.963 156.222 153.963 156.122C153.963 155.922 154.063 155.822 154.163 155.722V155.622C154.263 155.422 154.463 155.222 154.663 155.122C154.763 155.022 154.863 155.022 155.063 154.922C155.163 154.922 155.263 154.922 155.363 154.922C155.663 154.722 155.963 154.522 156.263 154.322C156.863 153.622 157.563 152.922 158.163 152.122C158.463 151.622 158.963 151.222 159.363 150.822C163.463 146.322 167.463 141.722 170.663 136.522C171.663 134.922 172.563 133.322 173.563 131.722C174.063 130.722 174.463 129.722 175.063 128.822C175.763 127.822 176.263 127.022 176.763 125.922C176.963 125.322 177.263 124.822 177.663 124.322C178.663 122.422 179.563 120.422 180.363 118.522C180.763 117.522 181.263 116.522 181.763 115.522C182.063 114.522 182.563 113.522 183.363 113.022C184.163 112.022 185.063 111.122 186.263 110.422C193.663 102.822 200.363 94.5215 207.563 86.7215C212.663 81.0215 214.063 72.3215 207.863 63.1215ZM35.7632 147.022C34.9632 147.222 34.4632 146.622 34.0632 146.122C33.0632 144.922 32.1632 143.622 31.1632 142.422C11.6632 120.522 4.56324 83.3215 19.7632 54.9215C19.7632 53.9215 20.0632 53.1215 20.7632 52.5215C20.7632 51.6215 21.2632 51.0215 21.9632 50.6215C22.2632 50.2215 22.4632 49.7215 22.7632 49.3215V49.1215L22.9632 49.0215C23.6632 48.2215 24.2632 47.4215 24.8632 46.6215C25.1632 45.3215 25.7632 44.3215 26.6632 43.4215C27.0632 42.4215 27.6632 41.6215 28.4632 41.0215C28.6632 40.8215 28.8632 40.6215 28.9632 40.4215C30.8632 37.8215 32.6632 35.1215 35.7632 32.8215V38.7215C35.7632 48.5215 35.7632 58.3215 35.7632 68.1215C35.7632 90.3215 35.7632 112.522 35.8632 134.822C35.8632 138.322 36.1632 141.822 36.2632 145.222C36.2632 145.822 36.6632 146.722 35.7632 147.022ZM62.9632 174.522C62.3632 175.322 61.8632 176.222 61.2632 176.922C58.4632 179.922 57.4632 179.822 55.6632 176.222C53.2632 171.622 49.7632 167.822 46.7632 163.622C50.8632 162.622 54.3632 160.422 57.3632 157.622C58.4632 156.622 58.7632 156.522 60.0632 157.622C63.0632 160.322 65.9632 163.822 70.9632 163.222C68.1632 167.322 65.5632 170.922 62.9632 174.522ZM121.263 96.4215C121.163 98.7215 120.263 99.4215 117.963 99.4215C106.563 99.6215 95.1632 99.9215 83.8632 99.3215C81.9632 99.2215 80.1632 99.2215 78.2632 99.2215C73.0632 99.3215 72.8632 99.1215 72.6632 103.422C71.8632 118.822 72.3632 134.322 72.1632 149.722C72.1632 151.122 72.9632 152.822 71.0632 153.622C69.2632 154.422 67.4632 154.422 65.8632 152.822C65.0632 151.922 64.1632 151.122 63.3632 150.222C60.2632 146.922 58.6632 146.922 55.3632 150.022C54.0632 151.222 52.7632 152.522 51.4632 153.722L50.5632 154.322H50.6632C48.1632 156.522 46.7632 156.422 45.1632 154.122C45.0632 154.022 45.0632 153.922 44.9632 153.822C44.9632 153.822 45.0632 153.722 45.0632 153.622C45.0632 153.322 45.0632 153.022 44.9632 152.722C44.8632 152.522 44.7632 152.422 44.7632 152.222C44.7632 152.122 44.8632 152.022 44.8632 151.922C44.8632 149.622 44.8632 147.422 44.8632 145.122C44.0632 136.722 44.5632 128.422 44.8632 120.022C44.7632 116.522 44.6632 112.922 44.5632 109.422C44.4632 108.122 44.5632 106.722 44.7632 105.422C44.7632 104.122 44.7632 102.722 44.7632 101.422C44.7632 100.822 44.7632 100.122 44.7632 99.5215C44.7632 95.3215 44.7632 91.2215 44.7632 87.0215C44.7632 86.4215 44.7632 85.7215 44.7632 85.1215C44.7632 80.4215 44.6632 75.7215 44.6632 71.1215C44.6632 55.8215 44.6632 40.6215 44.7632 25.3215C44.7632 23.5215 44.6632 21.7215 45.2632 20.0215C45.2632 15.8215 45.2632 15.8215 49.2632 15.9215C50.1632 15.9215 51.0632 15.9215 51.9632 16.0215C63.6632 15.3215 75.3632 15.6215 87.0632 15.8215C94.3632 16.0215 101.763 15.4215 109.063 15.5215C110.863 15.5215 112.663 15.6215 114.463 15.6215C118.163 15.7215 121.763 15.9215 125.463 15.8215C128.263 15.7215 128.563 16.7215 127.363 18.9215C127.363 25.8215 127.363 32.6215 127.463 39.5215C127.563 42.2215 125.963 42.3215 123.963 42.3215C111.963 42.3215 100.063 42.3215 88.0632 42.3215C83.8632 42.3215 79.6632 42.3215 75.4632 42.3215C73.5632 42.3215 72.2632 43.1215 72.2632 45.0215C72.2632 54.3215 72.3632 63.5215 73.5632 72.7215C88.5632 72.6215 103.563 72.5215 118.663 72.4215C119.963 72.4215 121.763 71.9215 121.163 74.4215C121.663 81.9215 121.663 89.1215 121.263 96.4215ZM122.663 63.9215C109.763 63.9215 96.9632 63.9215 84.0632 64.0215C82.0632 64.0215 81.1632 63.7215 81.3632 61.5215C81.5632 58.8215 81.5632 56.1215 81.3632 53.4215C81.2632 51.3215 82.0632 50.7215 83.9632 50.9215C89.3632 51.4215 94.7632 51.3215 100.063 51.3215C109.963 51.3215 119.763 51.3215 129.663 51.3215C133.363 51.3215 135.563 49.6215 136.263 45.9215C136.463 44.9215 136.463 43.9215 136.463 42.9215C136.263 39.5215 135.863 36.1215 136.263 32.7215C135.963 30.5215 136.063 28.4215 136.163 26.2215C136.263 23.8215 137.463 24.2215 138.663 25.1215C140.163 26.3215 141.863 27.2215 143.463 28.2215C147.063 29.6215 149.863 32.2215 152.163 35.2215C156.163 40.4215 160.563 45.4215 163.963 51.0215C165.663 53.7215 166.563 57.2215 168.063 60.2215C168.463 61.1215 167.863 61.5215 167.463 62.0215C163.163 66.6215 158.763 71.0215 154.463 75.6215C150.163 80.2215 146.563 85.5215 142.263 90.2215C138.863 93.8215 135.263 97.3215 132.263 101.322C131.763 102.022 131.163 102.822 130.063 103.022C129.263 102.022 129.263 100.722 129.263 99.4215C129.263 90.9215 129.163 82.4215 129.663 74.0215C129.763 73.0215 129.763 72.0215 129.763 71.0215C129.663 66.2215 127.463 63.9215 122.663 63.9215ZM111.463 169.722C107.863 170.622 104.263 171.622 100.963 173.322C99.6632 173.922 98.7632 174.122 97.8632 172.222C96.9632 170.222 95.7632 167.822 92.9632 167.922C94.3632 162.322 95.7632 156.922 97.0632 151.822C102.863 150.922 102.263 155.422 102.863 158.622C103.163 160.422 103.663 161.122 105.463 160.922C106.463 160.822 107.463 160.922 108.463 160.922C113.663 161.022 113.563 161.022 113.863 166.222C113.963 168.322 113.363 169.222 111.463 169.722ZM116.863 143.122C116.663 143.322 116.363 143.622 116.163 143.822C115.363 144.422 114.563 145.022 113.763 145.722C112.763 146.822 111.463 147.522 110.063 147.822C107.663 147.722 105.563 146.222 103.263 145.722C101.963 145.422 102.863 144.422 103.263 143.922C104.763 142.322 106.263 140.822 107.863 139.322C113.363 134.022 117.763 127.522 123.763 122.722L124.363 122.222C124.563 122.022 124.763 121.822 125.063 121.522C125.263 121.322 125.463 121.122 125.663 120.922C125.863 120.722 126.063 120.522 126.263 120.322C126.463 120.122 126.663 119.922 126.863 119.722V119.822L127.463 119.122H127.363C127.563 118.922 127.763 118.622 127.963 118.422L127.863 118.522C130.163 115.322 133.063 112.622 135.963 109.822C141.863 104.122 146.763 97.4215 152.563 91.6215C154.263 88.7215 154.263 88.7215 156.863 91.6215C157.063 91.8215 157.263 92.0215 157.463 92.2215C157.663 92.4215 157.863 92.6215 158.063 92.8215C158.463 93.2215 158.963 93.6215 159.463 93.9215C161.263 95.1215 161.963 96.3215 159.963 98.0215C159.463 98.4215 159.163 99.1215 158.863 99.6215C158.563 100.022 158.263 100.322 158.063 100.722V100.622C157.663 101.022 157.263 101.522 156.863 101.922V101.822C156.663 102.022 156.463 102.322 156.263 102.522C156.063 102.722 155.963 102.922 155.763 103.122L155.663 103.222C155.563 103.422 155.363 103.522 155.263 103.722C155.263 103.822 155.163 103.922 154.963 104.022C154.863 104.222 154.763 104.322 154.563 104.522C154.363 104.722 154.263 104.922 154.063 105.122L153.963 105.222C153.463 105.722 152.963 106.222 152.463 106.722L152.563 106.622C152.363 106.822 152.163 107.122 151.863 107.322L151.963 107.222C151.763 107.422 151.563 107.722 151.263 107.922L151.363 107.822C151.163 108.022 150.963 108.222 150.863 108.422C149.863 109.422 148.863 110.522 147.863 111.522C147.663 111.722 147.463 112.022 147.263 112.222L147.363 112.122C147.163 112.322 146.963 112.522 146.763 112.822C146.463 113.122 146.163 113.422 145.863 113.822L144.663 115.122C143.663 116.522 142.463 117.722 141.063 118.722C140.663 119.122 140.263 119.522 139.863 119.922L139.663 120.022C139.363 120.322 139.063 120.522 138.863 120.822L138.963 120.722C138.763 120.922 138.563 121.122 138.263 121.322C131.563 128.822 124.563 136.022 117.263 142.822C117.063 143.022 116.863 143.222 116.663 143.422L116.863 143.122ZM174.863 110.822C158.263 127.622 141.663 144.422 125.063 161.122C123.863 162.322 122.663 163.722 120.763 162.222C120.163 161.722 119.563 161.322 119.663 160.422C118.663 159.022 118.163 157.422 118.763 155.722C119.063 155.222 119.363 154.622 119.763 154.122C119.763 153.922 119.863 153.722 120.063 153.622L120.163 153.522C120.463 153.222 120.663 152.922 120.963 152.622C121.163 152.422 121.363 152.122 121.563 151.922C121.763 151.722 121.963 151.522 122.163 151.322C122.363 151.122 122.563 150.922 122.863 150.722H122.763C122.963 150.522 123.163 150.322 123.463 150.122V150.222L124.163 149.622H124.063C124.263 149.422 124.463 149.122 124.663 148.922C124.863 148.722 124.963 148.622 125.163 148.422C125.463 148.022 125.763 147.522 126.363 147.722C126.363 146.822 126.963 146.522 127.663 146.222C129.063 145.422 130.063 144.222 130.863 143.022C131.163 142.222 131.463 141.422 132.463 141.322C132.363 140.822 132.563 140.622 133.063 140.722C136.663 136.422 140.663 132.322 144.963 128.722C145.163 127.722 145.563 126.922 146.763 126.922C146.863 125.822 147.463 125.222 148.563 125.122C148.463 124.622 148.663 124.422 149.163 124.522C149.063 124.022 149.263 123.822 149.763 123.922C152.563 120.422 155.463 116.822 159.363 114.322C161.563 111.722 163.863 109.322 166.563 107.122C166.763 106.822 166.963 106.522 167.163 106.322C168.263 105.422 168.863 103.522 171.063 104.622C173.263 105.722 174.863 107.422 176.063 109.522C176.163 110.022 175.263 110.422 174.863 110.822ZM182.363 103.222C181.263 103.822 180.563 102.322 179.863 101.622C173.663 95.6215 167.563 89.7215 161.463 83.7215C160.263 82.5215 159.163 81.3215 160.463 79.6215C161.763 77.9215 163.063 79.2215 164.363 79.7215C167.063 80.7215 169.163 82.5215 171.163 84.4215C175.463 88.7215 179.763 93.0215 184.063 97.3215C184.563 97.8215 185.363 98.2215 185.363 99.3215C184.463 100.722 183.763 102.422 182.363 103.222ZM192.163 92.7215C191.263 94.1215 190.263 93.1215 189.563 92.3215C185.663 88.0215 180.963 84.6215 176.763 80.7215C175.163 79.2215 173.363 77.8215 171.163 77.0215C169.563 76.4215 167.763 75.0215 168.363 72.7215C168.763 71.1215 169.963 70.0215 171.463 69.4215C172.863 69.8215 174.163 70.4215 175.163 71.3215C181.563 76.7215 187.163 82.9215 193.263 88.6215C195.263 90.4215 192.863 91.5215 192.163 92.7215ZM199.363 80.2215C198.863 82.5215 197.863 81.3215 196.963 80.5215C192.463 76.1215 187.863 71.9215 183.063 67.9215C182.863 67.7215 182.563 67.5215 182.463 67.3215C181.963 66.0215 178.863 66.9215 179.863 64.6215C180.863 62.3215 182.763 60.6215 185.563 60.4215C193.063 59.8215 198.863 63.7215 201.863 71.2215C203.863 74.9215 201.763 77.6215 199.363 80.2215Z" fill="#05131B"/>
<path d="M44.9632 99.6215C44.9632 95.4215 44.9632 91.3215 44.9632 87.1215C45.4632 86.5215 45.4632 85.8215 44.9632 85.2215C44.9632 80.5215 44.8633 75.8215 44.8633 71.2215C44.8633 55.9215 44.8632 40.7215 44.9632 25.4215C44.9632 23.6215 44.8632 21.8215 45.4632 20.1215C46.4632 19.0215 47.2633 18.1215 48.7633 19.7215C49.5633 20.5215 50.6633 21.0215 51.6633 21.6215C52.1633 22.5215 52.5633 23.5215 53.1633 24.4215C53.5633 25.0215 54.3632 25.2215 54.9632 24.8215C55.7632 24.3215 55.3633 23.6215 54.8633 23.1215C53.9633 22.2215 53.0633 21.4215 52.0633 20.6215C51.9633 20.3215 51.7633 19.9215 51.6633 19.6215C51.5633 18.3215 53.4633 18.3215 53.3633 17.0215C53.8633 16.9215 54.3633 16.9215 54.8633 16.8215C60.5633 16.9215 66.2633 16.8215 72.0633 17.2215C76.2633 17.5215 80.5633 16.8215 84.8633 16.8215C93.2633 16.7215 101.563 16.7215 109.963 16.7215C111.563 16.7215 113.163 16.5215 114.563 15.8215C118.263 15.9215 121.863 16.1215 125.563 16.0215C128.363 15.9215 128.663 16.9215 127.463 19.1215C124.063 21.1215 121.463 24.0215 118.963 26.9215C117.263 28.8215 115.563 29.2215 113.163 29.6215C109.663 30.1215 106.263 29.6215 102.763 29.5215C90.2633 29.1215 77.7632 30.2215 65.1632 29.5215C63.9632 29.4215 62.7632 29.8215 61.6632 29.9215C60.3632 30.0215 59.9632 30.8215 59.9632 31.9215C59.8632 35.1215 59.6633 38.2215 59.7633 41.4215C59.9633 48.9215 60.3633 56.3215 60.3633 63.8215C60.3633 69.2215 60.0632 74.5215 59.9632 79.9215C59.9632 80.8215 59.4633 82.1215 60.7633 82.5215C62.0633 82.9215 63.0632 82.0215 63.4632 81.0215C64.2632 79.1215 65.9633 78.3215 67.2633 77.0215C69.2633 75.2215 72.3633 75.4215 73.8633 73.0215C88.8633 72.9215 103.863 72.8215 118.963 72.7215C120.263 72.7215 122.063 72.2215 121.463 74.7215C120.463 76.6215 119.063 78.1215 117.363 79.4215C115.763 80.7215 114.163 82.2215 112.963 83.8215C111.763 85.6215 110.363 86.1215 108.263 86.1215C93.1633 86.0215 77.9633 86.0215 62.8633 85.9215C60.7633 85.9215 59.8633 86.4215 59.8633 88.7215C59.7633 101.921 59.4633 115.221 59.3633 128.421C59.2633 133.221 59.3633 137.921 59.3633 142.721C59.0633 142.721 58.8633 142.722 58.5633 142.822C59.0633 137.122 57.5633 131.721 55.5633 126.521C55.0633 125.121 54.6633 124.321 52.8633 125.221C50.4633 126.421 48.1633 127.322 47.8633 130.521C47.7633 131.322 47.1633 132.121 46.2633 132.021C45.1633 131.822 45.6633 130.721 45.5633 130.021C45.3633 127.621 46.0633 125.221 45.1633 122.921C45.1633 119.021 45.1633 115.121 45.0633 111.221C45.6633 109.321 45.6633 107.522 45.0633 105.622C45.0633 104.322 45.0633 102.922 45.0633 101.622C45.3633 100.822 45.3632 100.222 44.9632 99.6215Z" fill="#FFD712"/>
<path d="M73.7633 73.0215C72.2633 75.4215 69.1632 75.2215 67.1632 77.0215C65.7632 78.3215 64.1633 79.1215 63.3633 81.0215C62.9633 81.9215 61.9632 82.9215 60.6632 82.5215C59.3632 82.1215 59.8633 80.8215 59.8633 79.9215C59.9633 74.5215 60.3633 69.2215 60.2633 63.8215C60.1633 56.3215 59.7632 48.9215 59.6632 41.4215C59.5632 38.2215 59.8633 35.1215 59.8633 31.9215C59.8633 30.8215 60.2633 30.0215 61.5633 29.9215C62.7633 29.8215 63.9633 29.4215 65.0633 29.5215C77.5633 30.1215 90.0632 29.0215 102.663 29.5215C106.163 29.6215 109.563 30.1215 113.063 29.6215C115.463 29.3215 117.163 28.8215 118.863 26.9215C121.363 24.0215 124.063 21.1215 127.363 19.1215C127.363 26.0215 127.363 32.8215 127.463 39.7215C127.563 42.4215 125.963 42.5215 123.963 42.5215C111.963 42.5215 100.063 42.5215 88.0633 42.5215C83.8633 42.5215 79.6632 42.5215 75.4632 42.5215C73.5632 42.5215 72.2633 43.3215 72.2633 45.2215C72.4633 54.5215 72.5633 63.8215 73.7633 73.0215Z" fill="#F79A2B"/>
<path d="M124.263 122.122C124.463 121.922 124.663 121.722 124.963 121.422C125.163 121.222 125.363 121.022 125.563 120.822C125.763 120.622 125.963 120.422 126.163 120.222C126.363 120.022 126.563 119.822 126.763 119.622V119.722C126.963 119.522 127.163 119.322 127.363 119.022H127.263C127.463 118.822 127.663 118.522 127.863 118.322L127.763 118.422C128.663 118.622 129.263 118.022 129.863 117.522C135.163 112.022 140.963 106.922 145.763 100.922C148.163 97.8215 151.263 95.2215 152.863 91.6215C154.163 91.1215 155.463 91.5215 156.763 91.6215C156.963 91.8215 157.163 92.0215 157.363 92.2215C157.563 92.4215 157.763 92.6215 157.963 92.8215C157.963 95.1215 158.163 97.4215 158.663 99.6215C157.963 99.7215 157.863 100.222 157.863 100.722V100.622C157.063 100.622 156.663 101.122 156.663 101.922V101.822C156.463 102.022 156.263 102.322 156.063 102.522C155.863 102.722 155.763 102.922 155.563 103.122L155.463 103.222C155.363 103.422 155.163 103.522 155.063 103.722C155.063 103.822 154.963 103.922 154.863 104.022C154.763 104.222 154.663 104.322 154.463 104.522C154.063 104.622 153.963 104.822 153.963 105.122L153.863 105.222C152.763 105.122 152.463 105.822 152.363 106.722L152.463 106.622C152.263 106.822 152.063 107.122 151.763 107.322L151.863 107.222C151.663 107.422 151.463 107.722 151.163 107.922L151.263 107.822C151.063 108.022 150.863 108.222 150.763 108.422C149.763 109.422 148.763 110.522 147.763 111.522C147.363 111.522 147.163 111.822 147.163 112.222L147.263 112.122C146.863 112.122 146.663 112.322 146.663 112.822C145.963 112.722 145.763 113.222 145.763 113.822C144.963 113.922 144.463 114.222 144.563 115.122C142.263 115.222 141.163 116.522 140.863 118.722C140.163 118.822 139.663 119.122 139.663 119.922L139.463 120.022C139.063 120.122 138.763 120.322 138.663 120.822L138.763 120.722C138.563 120.922 138.363 121.122 138.063 121.322C131.363 128.822 124.363 136.022 117.063 142.822C116.863 143.022 116.663 143.222 116.463 143.422L116.563 143.322C116.363 143.522 116.063 143.822 115.863 144.022C114.463 143.922 113.363 144.022 113.463 145.922C111.763 145.722 110.663 146.822 109.763 148.022C107.363 147.922 105.263 146.422 102.963 145.922C101.663 145.622 102.563 144.622 102.963 144.122C104.463 142.522 105.963 141.022 107.563 139.522C113.063 134.222 117.463 127.722 123.463 122.922C123.963 122.422 124.163 122.322 124.263 122.122Z" fill="#FFD712"/>
<path d="M70.8633 163.322C68.0633 167.322 65.4632 170.922 62.9632 174.622C62.3632 175.422 61.8632 176.322 61.2632 177.022C58.4632 180.022 57.4632 179.922 55.6632 176.322C53.2632 171.722 49.7632 167.922 46.7632 163.722C50.8632 162.722 54.3633 160.522 57.3633 157.722C58.4633 156.722 58.7632 156.622 60.0632 157.722C62.9632 160.522 65.8633 163.922 70.8633 163.322Z" fill="#DDB57A"/>
<path d="M96.9632 152.022C102.763 151.122 102.163 155.622 102.763 158.822C103.063 160.622 103.563 161.322 105.363 161.122C106.363 161.022 107.363 161.122 108.363 161.122C113.563 161.222 113.463 161.222 113.763 166.422C113.863 168.422 113.263 169.322 111.363 169.822C107.763 170.722 104.163 171.722 100.863 173.422C99.5633 174.022 98.6632 174.222 97.7632 172.322C96.8632 170.322 95.6633 167.922 92.8633 168.022C94.3633 162.522 95.6632 157.022 96.9632 152.022ZM101.463 170.722C104.863 170.522 107.763 169.122 110.863 168.022C112.063 167.622 112.863 166.522 112.163 165.222C111.463 164.022 110.263 163.822 109.063 164.622C106.263 166.222 103.663 168.222 101.463 170.722Z" fill="#DDB57A"/>
<path d="M185.163 99.4215C184.363 100.822 183.663 102.522 182.163 103.322C181.063 103.922 180.363 102.422 179.663 101.722C173.463 95.7215 167.363 89.8215 161.263 83.8215C160.063 82.6215 158.963 81.4215 160.263 79.7215C161.563 78.0215 162.863 79.3215 164.163 79.8215C166.863 80.8215 168.963 82.6215 170.963 84.5215C175.263 88.8215 179.563 93.1215 183.863 97.4215C184.463 98.0215 185.163 98.4215 185.163 99.4215Z" fill="#C0C0C0"/>
<path d="M171.263 69.4215C172.663 69.8215 173.963 70.4215 174.963 71.3215C181.363 76.7215 186.963 82.9215 193.063 88.6215C195.063 90.5215 192.763 91.6215 192.063 92.8215C191.163 94.2215 190.163 93.2215 189.463 92.4215C185.563 88.1215 180.863 84.7215 176.663 80.8215C175.063 79.3215 173.263 77.9215 171.063 77.1215C169.463 76.5215 167.663 75.1215 168.263 72.8215C168.563 71.0215 169.763 70.0215 171.263 69.4215Z" fill="#C0C0C0"/>
<path d="M114.563 15.7215C113.063 16.4215 111.563 16.6215 109.963 16.6215C101.563 16.6215 93.2632 16.6215 84.8632 16.7215C80.5632 16.8215 76.2632 17.5215 72.0632 17.1215C66.3632 16.7215 60.6632 16.8215 54.8632 16.7215C54.0632 16.0215 52.9632 16.6215 52.0632 16.1215C63.7632 15.4215 75.4632 15.7215 87.1632 15.9215C94.4632 16.1215 101.863 15.5215 109.163 15.6215C110.963 15.6215 112.763 15.6215 114.563 15.7215Z" fill="#FFD712"/>
<path d="M152.863 91.5215C151.263 95.2215 148.163 97.8215 145.763 100.822C140.963 106.822 135.163 111.922 129.863 117.422C129.263 118.022 128.663 118.522 127.763 118.322C130.063 115.122 132.963 112.422 135.863 109.622C141.763 103.922 146.663 97.2215 152.463 91.4215H152.663L152.863 91.5215Z" fill="#FFD712"/>
<path d="M199.263 80.3215C198.763 82.6215 197.763 81.4215 196.863 80.6215C192.363 76.2215 187.763 72.0215 182.963 68.0215C182.763 67.8215 182.463 67.6215 182.363 67.4215C181.863 66.1215 178.763 67.0215 179.763 64.7215C180.763 62.4215 182.663 60.7215 185.463 60.5215C192.963 59.9215 198.763 63.8215 201.763 71.3215C197.463 72.1215 196.363 73.9215 197.963 77.8215C198.263 78.6215 198.863 79.4215 199.263 80.3215Z" fill="#FF8585"/>
<path d="M199.263 80.3215C198.863 79.4215 198.263 78.6215 197.963 77.7215C196.463 73.8215 197.463 72.0215 201.763 71.2215C203.763 75.0215 201.663 77.6215 199.263 80.3215Z" fill="#FF8585"/>
<path d="M152.063 35.4215C156.063 40.6215 160.463 45.6215 163.863 51.2215C165.563 53.9215 166.463 57.4215 167.963 60.4215C168.363 61.3215 167.763 61.7215 167.363 62.2215C163.063 66.8215 158.663 71.2215 154.363 75.8215C150.063 80.4215 146.463 85.7215 142.163 90.4215C138.763 94.0215 135.163 97.5215 132.163 101.522C131.663 102.222 131.063 103.022 129.963 103.222C129.163 102.222 129.163 100.922 129.163 99.6215C129.163 91.1215 129.063 82.6215 129.563 74.2215C129.663 73.2215 129.663 72.2215 129.663 71.2215C129.563 66.4215 127.363 64.1215 122.563 64.1215C109.663 64.1215 96.8632 64.1215 83.9632 64.2215C81.9632 64.2215 81.0632 63.9215 81.2632 61.7215C81.4632 59.0215 81.4632 56.3215 81.2632 53.6215C81.1632 51.5215 81.9633 50.9215 83.8633 51.1215C89.2633 51.6215 94.6632 51.5215 99.9632 51.5215C109.863 51.5215 119.663 51.5215 129.563 51.5215C133.263 51.5215 135.463 49.8215 136.163 46.1215C136.363 45.1215 136.363 44.1215 136.363 43.1215C138.663 44.5215 137.463 46.4215 136.863 48.0215C135.963 50.1215 134.863 52.2215 135.263 54.6215C135.663 56.5215 135.563 58.3215 135.563 60.2215C135.663 63.0215 135.963 65.7215 139.163 67.7215C141.563 69.1215 143.063 67.8215 144.863 67.6215C149.163 67.3215 151.163 63.4215 154.263 61.1215C154.963 60.6215 155.363 59.3215 156.363 58.7215C157.563 58.1215 157.863 56.9215 157.863 55.7215C157.763 53.3215 157.963 51.0215 158.863 48.7215C159.263 47.7215 159.363 46.6215 157.763 46.1215C153.363 44.8215 150.863 39.9215 152.063 35.4215Z" fill="#D288D8"/>
<path d="M152.063 35.4215C150.763 40.0215 153.363 44.8215 157.763 46.1215C159.363 46.6215 159.163 47.7215 158.863 48.7215C157.963 51.0215 157.763 53.3215 157.863 55.7215C157.863 57.0215 157.563 58.1215 156.363 58.7215C155.363 59.3215 154.963 60.5215 154.263 61.1215C151.263 63.4215 149.263 67.3215 144.863 67.6215C142.963 67.7215 141.563 69.1215 139.163 67.7215C135.863 65.7215 135.563 63.0215 135.563 60.2215C135.563 58.3215 135.663 56.5215 135.263 54.6215C134.863 52.2215 135.963 50.2215 136.863 48.0215C137.563 46.4215 138.663 44.5215 136.363 43.1215C136.163 39.7215 135.763 36.3215 136.163 32.9215C136.963 32.9215 137.663 32.6215 138.163 31.9215C139.463 30.1215 141.463 29.3215 143.363 28.4215C147.063 29.8215 149.763 32.3215 152.063 35.4215Z" fill="#D288D8"/>
<path d="M143.363 28.4215C141.463 29.3215 139.463 30.1215 138.163 31.9215C137.663 32.6215 136.963 32.9215 136.163 32.9215C135.863 30.7215 135.963 28.6215 136.063 26.4215C136.163 24.0215 137.363 24.4215 138.563 25.3215C140.063 26.5215 141.763 27.4215 143.363 28.4215Z" fill="#D288D8"/>
<path d="M52.0633 16.1215C52.9633 16.5215 54.0633 16.0215 54.8633 16.7215C54.3633 16.8215 53.8633 16.8215 53.3633 16.9215C52.3633 16.9215 51.0632 16.3215 50.4632 17.5215C49.9632 18.4215 50.8633 19.1215 51.6633 19.6215C51.7633 19.9215 51.9633 20.3215 52.0633 20.6215C51.8633 20.9215 51.7633 21.3215 51.5633 21.6215C50.5633 21.0215 49.3633 20.5215 48.6633 19.7215C47.2633 18.2215 46.3633 19.1215 45.3633 20.1215C45.3633 15.9215 45.3633 15.9215 49.3633 16.0215C50.2633 16.0215 51.1633 16.0215 52.0633 16.1215Z" fill="#FFD712"/>
<path d="M44.9632 122.822C45.7632 125.122 45.1632 127.522 45.3632 129.922C45.4632 130.622 44.9632 131.722 46.0632 131.922C46.9632 132.022 47.5632 131.222 47.6632 130.422C47.9632 127.322 50.2632 126.322 52.6632 125.122C54.4632 124.222 54.8632 125.022 55.3632 126.422C57.3632 131.622 58.8632 137.022 58.3632 142.722C58.6632 142.722 58.8632 142.722 59.1632 142.622C59.1632 137.822 59.0632 133.122 59.1632 128.322C59.3632 115.122 59.5632 101.822 59.6632 88.6215C59.6632 86.3215 60.6632 85.8215 62.6632 85.8215C77.7632 85.9215 92.9632 85.9215 108.063 86.0215C110.163 86.0215 111.563 85.5215 112.763 83.7215C113.963 82.0215 115.563 80.5215 117.163 79.3215C118.863 78.0215 120.263 76.5215 121.263 74.6215C121.763 81.9215 121.763 89.1215 121.363 96.4215C121.263 98.7215 120.363 99.4215 118.063 99.4215C106.563 99.6215 95.1632 99.9215 83.6632 99.3215C81.4632 99.2215 79.2632 99.2215 77.0632 99.3215C73.0632 99.4215 72.8632 99.6215 72.6632 103.422C71.8632 118.822 72.3632 134.322 72.1632 149.722C72.1632 151.122 72.9632 152.822 71.0632 153.622C69.2632 154.422 67.4632 154.422 65.8632 152.822C65.0632 151.922 64.1632 151.122 63.3632 150.222C60.2632 146.922 58.6632 146.922 55.3632 150.022C54.0632 151.222 52.7632 152.522 51.4632 153.722C51.1632 153.922 50.8632 154.122 50.5632 154.322H50.6632C46.5632 153.722 45.8632 152.922 45.8632 148.822C45.8632 146.722 45.8632 144.622 45.8632 142.422C45.7632 142.422 45.5632 142.422 45.4632 142.422C45.2632 143.322 45.0632 144.222 44.9632 145.122C44.3632 137.822 44.6632 130.322 44.9632 122.822Z" fill="#F79A2B"/>
<path d="M45.0632 145.322C45.2632 144.422 45.4632 143.522 45.5632 142.622C45.6632 142.622 45.8632 142.622 45.9632 142.622C45.9632 144.722 45.9632 146.822 45.9632 149.022C45.9632 153.122 46.6632 153.922 50.7632 154.522C48.2632 156.722 46.8632 156.622 45.2632 154.322C45.3632 154.122 45.3632 154.022 45.1632 153.822C45.1632 153.522 45.1632 153.222 45.0632 152.922C45.0632 152.822 45.1632 152.722 45.1632 152.622C45.1632 152.422 45.0632 152.322 44.9632 152.122C45.0632 149.822 45.0632 147.522 45.0632 145.322Z" fill="#F79A2B"/>
<path d="M158.763 99.5215C158.263 97.2215 157.963 95.0215 158.063 92.7215C158.463 93.1215 158.963 93.5215 159.463 93.8215C161.263 95.0215 161.963 96.2215 159.963 97.9215C159.363 98.3215 159.063 99.0215 158.763 99.5215Z" fill="#FFD712"/>
<path d="M152.863 91.5215H152.663H152.463C154.163 88.6215 154.163 88.6215 156.763 91.5215C155.463 91.4215 154.163 91.0215 152.863 91.5215Z" fill="#FFD712"/>
<path d="M141.163 118.522C141.363 116.322 142.563 115.022 144.863 114.922C143.763 116.322 142.563 117.522 141.163 118.522Z" fill="#FFD712"/>
<path d="M110.063 147.722C110.963 146.522 112.063 145.422 113.763 145.622C112.763 146.722 111.563 147.522 110.063 147.722Z" fill="#FFD712"/>
<path d="M44.9633 105.522C45.5633 107.422 45.5633 109.222 44.9633 111.122C44.6633 109.222 44.6633 107.422 44.9633 105.522Z" fill="#FFD712"/>
<path d="M63.3633 191.222C64.8633 190.822 66.5632 190.822 68.0632 190.622C71.6632 190.222 75.1632 189.922 78.7632 189.522C79.8632 189.422 81.0632 189.222 82.1632 189.022C81.1632 188.822 81.1632 187.622 81.7632 185.422C84.2632 176.222 85.9632 166.922 87.1632 157.522C88.0632 150.522 90.4632 144.422 95.4632 139.422C104.163 130.622 112.863 121.622 121.463 112.722C122.463 111.722 124.563 110.722 123.963 109.422C123.363 108.222 121.163 108.422 119.563 108.422C119.063 108.422 118.563 108.422 118.063 108.422C106.863 108.622 95.7632 109.022 84.5632 108.922C81.7632 108.922 81.2632 109.522 81.1632 112.022C81.0632 124.622 80.7632 137.122 80.5632 149.722C81.2632 152.122 81.2632 154.522 80.5632 156.922C80.5632 157.722 80.5632 158.522 80.5632 159.322C81.1632 160.922 81.6632 162.522 80.1632 164.022C79.5632 165.722 78.8633 167.322 77.8633 168.822C72.5633 176.522 67.3632 184.222 62.0632 191.922C62.5632 191.522 62.9633 191.322 63.3633 191.222ZM94.2632 119.222C96.1632 119.722 96.6632 121.322 96.8633 122.822C96.8633 125.122 95.7632 126.722 93.9632 126.922C92.1632 127.122 91.0633 125.322 90.8633 123.522C90.6632 121.922 93.0632 118.922 94.2632 119.222Z" fill="#D288D8"/>
<path d="M80.7632 149.622C81.4632 152.022 81.4632 154.422 80.7632 156.822C80.7632 154.422 80.7632 152.022 80.7632 149.622Z" fill="#D288D8"/>
<path d="M80.7632 159.222C81.3632 160.822 81.8633 162.422 80.3633 163.922C80.4633 162.422 80.6632 160.822 80.7632 159.222Z" fill="#D288D8"/>
<path d="M113.763 145.722C113.563 143.822 114.763 143.722 116.163 143.822C115.363 144.422 114.563 145.022 113.763 145.722Z" fill="#FFD712"/>
<path d="M35.7633 38.8215C35.7633 48.6215 35.7633 58.4215 35.7633 68.2215C33.7633 68.5215 34.0632 70.0215 33.9632 71.4215C33.8632 76.7215 32.2633 78.9215 27.3633 80.5215C26.6633 80.7215 25.9633 80.8215 25.5633 81.5215C23.0633 81.7215 21.0632 83.2215 21.4632 85.5215C21.7632 87.3215 23.5633 89.1215 26.1633 88.4215C28.4633 89.2215 29.8633 91.2215 31.6633 92.6215C33.6633 94.1215 34.0633 95.4215 32.3633 97.2215C31.5633 98.0215 30.5633 98.9215 31.1633 100.022C32.7633 102.822 32.3633 105.722 31.6633 108.622C31.4633 109.322 31.6633 110.322 32.0633 110.922C33.4633 113.022 34.1633 115.022 32.2633 117.222C31.8633 117.722 31.6632 118.522 31.9632 119.222C33.5632 121.822 32.6633 125.022 33.6633 127.522C35.7633 132.222 33.7633 136.522 33.1633 140.922C33.0633 142.022 32.2633 142.622 31.0633 142.622C11.6633 120.622 4.56325 83.4215 19.7633 55.0215C20.7633 55.1215 21.4633 54.7215 21.7633 53.7215C21.9633 52.9215 21.3633 52.7215 20.7633 52.6215C20.7633 51.7215 21.2632 51.1215 21.9632 50.7215C22.2632 51.0215 22.5633 51.3215 22.8633 50.9215C23.2633 50.4215 22.9633 49.8215 22.6633 49.3215V49.1215L22.8633 49.0215C25.4633 49.3215 25.7632 48.0215 24.9632 45.9215C25.2632 44.9215 25.7633 44.1215 26.5633 43.4215C28.2633 43.4215 28.6632 42.3215 28.4632 40.9215C28.6632 40.7215 28.7632 40.6215 28.9632 40.4215C29.8632 40.4215 30.8633 40.2215 31.3633 39.5215C32.6632 37.9215 34.1633 38.3215 35.7633 38.8215Z" fill="#D288D8"/>
<path d="M25.5633 81.5215C25.9633 80.8215 26.6633 80.7215 27.3633 80.5215C32.2633 78.9215 33.8633 76.7215 33.9633 71.4215C33.9633 70.0215 33.7633 68.5215 35.7633 68.2215C35.7633 90.4215 35.7633 112.622 35.8633 134.922C35.8633 138.422 36.1633 141.922 36.2633 145.322C36.2633 145.922 36.6633 146.822 35.7633 147.122C34.9633 147.322 34.4633 146.722 34.0633 146.222C33.0633 145.022 32.1633 143.722 31.1633 142.522C32.3633 142.522 33.1633 141.922 33.2633 140.822C33.8633 136.422 35.7633 132.222 33.7633 127.422C32.6633 125.022 33.5633 121.722 32.0633 119.122C31.6633 118.422 31.8633 117.622 32.3633 117.122C34.3633 114.922 33.5633 112.922 32.1633 110.822C31.7633 110.222 31.5633 109.222 31.7633 108.522C32.4633 105.622 32.8633 102.722 31.2633 99.9215C30.6633 98.8215 31.6633 97.9215 32.4633 97.1215C34.1633 95.3215 33.7633 94.0215 31.7633 92.5215C29.9633 91.1215 28.5633 89.1215 26.2633 88.3215C29.7633 84.7215 29.7633 84.3215 25.5633 81.5215Z" fill="#D288D8"/>
<path d="M35.7633 38.8215C34.1633 38.3215 32.6633 37.9215 31.3633 39.7215C30.8633 40.4215 29.8633 40.6215 28.9633 40.6215C30.8633 38.0215 32.6633 35.3215 35.7633 33.0215C35.7633 35.2215 35.7633 37.0215 35.7633 38.8215Z" fill="#D288D8"/>
<path d="M24.9632 46.0215C25.7632 48.0215 25.4633 49.4215 22.8633 49.1215C23.5633 48.1215 24.2632 47.1215 24.9632 46.0215Z" fill="#D288D8"/>
<path d="M20.7633 52.6215C21.3633 52.7215 21.9633 52.9215 21.7633 53.7215C21.4633 54.7215 20.7633 55.1215 19.7633 55.0215C19.6633 54.0215 20.0633 53.2215 20.7633 52.6215Z" fill="#D288D8"/>
<path d="M28.5633 41.1215C28.6633 42.5215 28.3633 43.6215 26.6633 43.6215C26.9633 42.5215 27.6633 41.7215 28.5633 41.1215Z" fill="#D288D8"/>
<path d="M22.7633 49.4215C23.0633 49.9215 23.3633 50.4215 22.9633 51.0215C22.6633 51.4215 22.2633 51.1215 22.0633 50.8215C22.1633 50.2215 22.4633 49.8215 22.7633 49.4215Z" fill="#D288D8"/>
<path d="M44.9633 99.6215C45.4633 100.222 45.4633 100.922 44.9633 101.522C44.9633 100.822 44.9633 100.222 44.9633 99.6215Z" fill="#FFD712"/>
<path d="M44.8633 85.2215C45.3633 85.8215 45.3633 86.5215 44.8633 87.1215C44.8633 86.5215 44.8633 85.8215 44.8633 85.2215Z" fill="#FFD712"/>
<path d="M152.563 106.622C152.563 105.622 152.963 105.022 154.063 105.122C153.563 105.622 153.063 106.122 152.563 106.622Z" fill="#FFD712"/>
<path d="M139.963 119.722C140.063 118.922 140.463 118.622 141.163 118.522C140.763 118.922 140.363 119.322 139.963 119.722Z" fill="#FFD712"/>
<path d="M144.763 115.022C144.763 114.122 145.163 113.822 145.963 113.722C145.563 114.122 145.163 114.522 144.763 115.022Z" fill="#FFD712"/>
<path d="M156.763 101.822C156.763 101.022 157.163 100.622 157.963 100.522C157.563 100.922 157.163 101.422 156.763 101.822Z" fill="#FFD712"/>
<path d="M157.963 100.622C157.963 100.122 158.163 99.6215 158.763 99.5215C158.463 99.8215 158.163 100.222 157.963 100.622Z" fill="#FFD712"/>
<path d="M145.963 113.722C146.063 113.222 146.163 112.722 146.863 112.722C146.563 113.122 146.263 113.422 145.963 113.722Z" fill="#FFD712"/>
<path d="M124.263 122.122C124.063 122.322 123.863 122.522 123.663 122.622C123.963 122.422 124.163 122.322 124.263 122.122Z" fill="#C0D0CF"/>
<path d="M45.0632 152.122C45.1632 152.322 45.2632 152.422 45.2632 152.622C45.2632 152.722 45.1632 152.822 45.1632 152.922C45.0632 152.722 44.9632 152.622 44.9632 152.422C44.8632 152.322 44.9632 152.122 45.0632 152.122Z" fill="#0568E1"/>
<path d="M45.1632 153.722C45.2632 153.922 45.3632 154.022 45.2632 154.222C45.1632 154.122 45.1632 154.022 45.0632 153.922C45.0632 153.922 45.1632 153.822 45.1632 153.722Z" fill="#0568E1"/>
<path d="M50.7632 154.522C51.0632 154.322 51.3632 154.122 51.6632 153.922C51.3632 154.022 51.0632 154.322 50.7632 154.522Z" fill="#3FC5FA"/>
<path d="M138.363 121.122C138.563 120.922 138.763 120.722 139.063 120.522C138.763 120.622 138.563 120.822 138.363 121.122Z" fill="#B0C2C4"/>
<path d="M138.963 120.522C139.063 120.022 139.363 119.822 139.763 119.722C139.463 120.022 139.163 120.322 138.963 120.522Z" fill="#FFD712"/>
<path d="M147.363 112.222C147.363 111.822 147.563 111.622 147.963 111.522C147.763 111.722 147.563 112.022 147.363 112.222Z" fill="#FFD712"/>
<path d="M150.963 108.422C151.163 108.222 151.363 108.022 151.463 107.822C151.263 108.022 151.163 108.222 150.963 108.422Z" fill="#B0C2C4"/>
<path d="M154.063 105.022C153.963 104.622 154.163 104.422 154.563 104.422C154.463 104.622 154.263 104.822 154.063 105.022Z" fill="#FFD712"/>
<path d="M154.563 104.422C154.663 104.222 154.763 104.122 154.963 103.922C154.863 104.022 154.663 104.222 154.563 104.422Z" fill="#B0C2C4"/>
<path d="M120.763 152.722C120.963 152.522 121.163 152.222 121.363 152.022C121.563 151.822 121.763 151.622 121.963 151.422C122.163 151.222 122.363 151.022 122.663 150.822H122.563C122.763 150.622 122.963 150.422 123.263 150.222V150.322C123.463 150.122 123.663 149.922 123.963 149.722H123.863C124.063 149.522 124.263 149.222 124.463 149.022C124.663 148.822 124.763 148.722 124.963 148.522C125.563 148.522 125.963 148.322 126.263 147.822H126.163C126.963 147.622 127.463 147.122 127.463 146.322C128.863 145.522 129.863 144.322 130.663 143.122C131.663 142.922 132.263 142.422 132.263 141.422C132.463 141.222 132.663 141.022 132.863 140.822C137.563 137.522 141.563 133.522 144.863 128.822C145.763 128.522 146.363 127.822 146.663 126.922C147.563 126.622 148.163 125.922 148.463 125.122C148.863 125.122 149.063 124.922 149.063 124.522C149.463 124.522 149.663 124.322 149.663 123.922C153.563 121.422 156.663 118.122 159.263 114.322C162.863 113.122 165.163 110.622 166.463 107.122C166.663 106.822 166.863 106.522 167.063 106.322C168.163 105.422 168.763 103.522 170.963 104.622C173.163 105.722 174.763 107.422 175.963 109.522C176.263 110.122 175.463 110.522 175.063 110.922C158.463 127.722 141.863 144.522 125.263 161.222C124.063 162.422 122.863 163.822 120.963 162.322C121.063 161.422 120.963 160.622 119.863 160.522C119.563 158.922 119.263 157.422 118.963 155.822C119.263 155.322 119.563 154.722 119.963 154.222C120.063 154.022 120.163 153.922 120.263 153.722L120.363 153.622C120.463 153.522 120.663 153.122 120.763 152.722Z" fill="#F79A2B"/>
<path d="M144.763 128.622C141.463 133.322 137.463 137.322 132.763 140.622C136.363 136.322 140.263 132.222 144.763 128.622Z" fill="#F79A2B"/>
<path d="M159.063 114.322C156.463 118.122 153.363 121.422 149.463 123.922C152.363 120.322 155.163 116.722 159.063 114.322Z" fill="#F79A2B"/>
<path d="M166.263 107.122C164.963 110.622 162.663 113.122 159.063 114.322C161.363 111.722 163.663 109.222 166.263 107.122Z" fill="#F79A2B"/>
<path d="M118.663 155.722C118.963 157.322 119.263 158.822 119.563 160.422C118.563 159.022 118.063 157.522 118.663 155.722Z" fill="#F79A2B"/>
<path d="M132.163 141.222C132.063 142.222 131.463 142.822 130.563 142.922C130.863 142.222 131.063 141.322 132.163 141.222Z" fill="#F79A2B"/>
<path d="M146.563 126.822C146.263 127.722 145.663 128.322 144.763 128.722C144.863 127.622 145.363 126.922 146.563 126.822Z" fill="#F79A2B"/>
<path d="M148.363 125.022C148.063 125.922 147.363 126.522 146.563 126.822C146.463 125.722 147.263 125.122 148.363 125.022Z" fill="#F79A2B"/>
<path d="M119.563 160.422C120.763 160.522 120.863 161.322 120.663 162.222C120.063 161.822 119.463 161.422 119.563 160.422Z" fill="#F79A2B"/>
<path d="M127.263 146.222C127.263 147.122 126.863 147.522 125.963 147.722C125.963 146.822 126.663 146.522 127.263 146.222Z" fill="#F79A2B"/>
<path d="M126.163 147.722C125.863 148.222 125.463 148.422 124.863 148.422C125.163 148.022 125.463 147.522 126.163 147.722Z" fill="#F79A2B"/>
<path d="M120.763 152.722C120.663 153.222 120.463 153.522 119.963 153.622C120.263 153.322 120.463 153.022 120.763 152.722Z" fill="#F79A2B"/>
<path d="M148.863 124.422C148.863 124.822 148.563 125.022 148.263 125.022C148.163 124.522 148.363 124.322 148.863 124.422Z" fill="#F79A2B"/>
<path d="M149.463 123.822C149.463 124.222 149.263 124.422 148.863 124.422C148.763 123.922 148.963 123.722 149.463 123.822Z" fill="#F79A2B"/>
<path d="M119.863 153.722C119.763 153.922 119.663 154.022 119.563 154.222C119.663 153.922 119.763 153.822 119.863 153.722Z" fill="#F79A2B"/>
<path d="M132.763 140.622C132.563 140.822 132.363 141.022 132.163 141.222C132.063 140.722 132.163 140.422 132.763 140.622Z" fill="#F79A2B"/>
<path d="M155.163 103.622C155.263 103.422 155.463 103.322 155.563 103.122C155.463 103.322 155.363 103.422 155.163 103.622Z" fill="#B0C2C4"/>
<path d="M127.263 119.022C127.063 119.222 126.863 119.522 126.663 119.722C126.863 119.422 127.063 119.222 127.263 119.022Z" fill="#C0D0CF"/>
<path d="M146.863 112.822C146.863 112.422 147.063 112.122 147.463 112.122C147.263 112.322 147.063 112.622 146.863 112.822Z" fill="#FFD712"/>
<path d="M151.363 107.922C151.563 107.722 151.763 107.422 152.063 107.222C151.863 107.422 151.563 107.622 151.363 107.922Z" fill="#B0C2C4"/>
<path d="M155.763 103.022C155.963 102.822 156.063 102.622 156.263 102.422C156.063 102.622 155.863 102.822 155.763 103.022Z" fill="#B0C2C4"/>
<path d="M166.863 106.322C166.663 106.622 166.463 106.922 166.263 107.122C166.463 106.822 166.663 106.622 166.863 106.322Z" fill="#3FC5FA"/>
<path d="M156.263 102.422C156.463 102.222 156.663 101.922 156.863 101.722C156.663 102.022 156.463 102.222 156.263 102.422Z" fill="#B0C2C4"/>
<path d="M124.363 148.922C124.163 149.122 123.963 149.422 123.763 149.622C123.963 149.422 124.163 149.222 124.363 148.922Z" fill="#7E99A6"/>
<path d="M116.063 143.822C116.263 143.622 116.563 143.322 116.763 143.122C116.563 143.422 116.363 143.622 116.063 143.822Z" fill="#C8DADB"/>
<path d="M151.963 107.222C152.163 107.022 152.363 106.722 152.663 106.522C152.463 106.822 152.163 107.022 151.963 107.222Z" fill="#B0C2C4"/>
<path d="M96.8633 122.822C96.8633 125.122 95.7632 126.722 93.9632 126.922C92.1632 127.122 91.0633 125.322 90.8633 123.522C90.6633 121.922 93.0632 118.922 94.2632 119.222C96.1632 119.722 96.7633 121.322 96.8633 122.822Z" fill="#05131B"/>
<path d="M51.5632 21.5215C51.7632 21.2215 51.8632 20.8215 52.0632 20.5215C52.9632 21.3215 53.9632 22.2215 54.8632 23.0215C55.3632 23.5215 55.7632 24.2215 54.9632 24.7215C54.3632 25.1215 53.5632 24.9215 53.1632 24.3215C52.4632 23.4215 52.0632 22.5215 51.5632 21.5215Z" fill="#FFD712"/>
<path d="M51.6632 19.4215C50.8632 18.9215 49.9632 18.3215 50.4632 17.3215C51.0632 16.1215 52.3632 16.7215 53.3632 16.7215C53.4632 18.1215 51.5632 18.1215 51.6632 19.4215Z" fill="#FFD712"/>
<path d="M25.5632 81.5215C29.7632 84.4215 29.7632 84.7215 26.1632 88.4215C23.5632 89.1215 21.7632 87.2215 21.4632 85.5215C21.0632 83.2215 23.0632 81.6215 25.5632 81.5215Z" fill="#05131B"/>
<path d="M101.463 170.722C103.763 168.222 106.263 166.322 109.063 164.622C110.263 163.922 111.463 164.022 112.163 165.222C112.863 166.522 112.063 167.622 110.863 168.022C107.763 169.022 104.763 170.522 101.463 170.722Z" fill="#DDB57A"/>
<mask id="path-84-outside-1_1_240" maskUnits="userSpaceOnUse" x="235" y="64" width="311" height="51" fill="black">
<rect fill="white" x="235" y="64" width="311" height="51"/>
<path d="M238.072 112V67.2H261.432V74.88H246.84V86.08H259.512V93.504H246.84V112H238.072ZM278.301 97.216H271.453C270.557 98.3253 270.109 99.712 270.109 101.376C270.109 103.04 270.578 104.341 271.517 105.28H278.301V97.216ZM264.541 79.296H280.413C282.973 80.832 284.658 82.6027 285.469 84.608C286.28 86.5707 286.685 89.2587 286.685 92.672V102.272C286.685 105.813 286.77 109.056 286.941 112H279.645L278.493 109.696C276.829 111.232 274.482 112 271.453 112H267.421C263.794 109.611 261.981 106.176 261.981 101.696C261.981 97.1733 263.837 93.6107 267.549 91.008H273.565C275.229 91.008 276.786 91.52 278.237 92.544V89.344C278.237 87.68 277.512 86.5707 276.061 86.016H264.541V79.296ZM306.398 79.296H313.182C315.059 81.6853 316.339 84.0747 317.022 86.464C317.704 88.8533 318.046 91.84 318.046 95.424V112H309.534V94.784C309.534 90.7307 308.979 87.808 307.87 86.016H300.702V112H292.19V79.296H298.845L299.998 81.6C300.936 80.7467 301.811 80.1493 302.622 79.808C303.475 79.4667 304.734 79.296 306.398 79.296ZM324.235 97.728V86.016H319.819V79.296H324.235V70.4H332.747V79.296H337.995V86.016H332.747V99.776C332.747 102.379 333.195 104.213 334.091 105.28H337.995V112H328.907C326.645 109.909 325.28 107.648 324.811 105.216C324.427 103.168 324.235 100.672 324.235 97.728ZM357.364 97.216H350.516C349.62 98.3253 349.172 99.712 349.172 101.376C349.172 103.04 349.641 104.341 350.58 105.28H357.364V97.216ZM343.604 79.296H359.476C362.036 80.832 363.721 82.6027 364.532 84.608C365.342 86.5707 365.748 89.2587 365.748 92.672V102.272C365.748 105.813 365.833 109.056 366.004 112H358.708L357.556 109.696C355.892 111.232 353.545 112 350.516 112H346.484C342.857 109.611 341.044 106.176 341.044 101.696C341.044 97.1733 342.9 93.6107 346.612 91.008H352.628C354.292 91.008 355.849 91.52 357.3 92.544V89.344C357.3 87.68 356.574 86.5707 355.124 86.016H343.604V79.296ZM383.988 104.576H395.252V112H378.996C376.18 109.355 374.047 106.005 372.596 101.952C371.145 97.8987 370.42 93.7387 370.42 89.472C370.42 85.1627 371.231 81.024 372.852 77.056C374.473 73.088 376.884 69.8027 380.084 67.2H395.252V74.88H383.988C382.836 76.2027 381.833 78.336 380.98 81.28C380.169 84.224 379.764 87.04 379.764 89.728C379.764 92.416 380.169 95.232 380.98 98.176C381.833 101.12 382.836 103.253 383.988 104.576ZM399.691 112V79.296H405.771L407.371 82.752C409.078 80.448 411.232 79.296 413.835 79.296H416.331V87.872H408.203V112H399.691ZM433.599 86.016H428.799C428.159 86.784 427.625 87.8507 427.199 89.216C426.815 90.5813 426.623 91.904 426.623 93.184H435.775C435.86 91.904 435.689 90.5813 435.263 89.216C434.836 87.808 434.281 86.7413 433.599 86.016ZM442.303 105.28V112H426.047C423.06 109.995 420.948 107.52 419.711 104.576C418.516 101.589 417.919 98.5813 417.919 95.552C417.919 88.5547 420.564 83.136 425.855 79.296H436.223C439.081 81.3867 441.023 83.6053 442.047 85.952C443.071 88.2987 443.583 90.6667 443.583 93.056C443.583 95.4453 443.391 97.4933 443.007 99.2H427.071C427.199 100.181 427.561 101.312 428.159 102.592C428.799 103.829 429.481 104.725 430.207 105.28H442.303ZM463.301 97.216H456.453C455.557 98.3253 455.109 99.712 455.109 101.376C455.109 103.04 455.578 104.341 456.517 105.28H463.301V97.216ZM449.541 79.296H465.413C467.973 80.832 469.658 82.6027 470.469 84.608C471.28 86.5707 471.685 89.2587 471.685 92.672V102.272C471.685 105.813 471.77 109.056 471.941 112H464.645L463.493 109.696C461.829 111.232 459.482 112 456.453 112H452.421C448.794 109.611 446.981 106.176 446.981 101.696C446.981 97.1733 448.837 93.6107 452.549 91.008H458.565C460.229 91.008 461.786 91.52 463.237 92.544V89.344C463.237 87.68 462.512 86.5707 461.061 86.016H449.541V79.296ZM478.11 97.728V86.016H473.694V79.296H478.11V70.4H486.622V79.296H491.87V86.016H486.622V99.776C486.622 102.379 487.07 104.213 487.966 105.28H491.87V112H482.782C480.52 109.909 479.155 107.648 478.686 105.216C478.302 103.168 478.11 100.672 478.11 97.728ZM514.958 112H501.006C496.739 108.032 494.606 102.613 494.606 95.744C494.606 92.288 495.075 89.28 496.014 86.72C496.995 84.16 498.531 81.6853 500.622 79.296H515.598C517.817 81.856 519.331 84.352 520.142 86.784C520.953 89.1733 521.358 92.16 521.358 95.744C521.358 102.613 519.225 108.032 514.958 112ZM505.55 105.28H510.414C511.95 102.293 512.718 98.9013 512.718 95.104C512.718 91.3067 511.929 88.2773 510.35 86.016H505.55C504.014 88.192 503.246 91.2853 503.246 95.296C503.246 99.264 504.014 102.592 505.55 105.28ZM526.004 112V79.296H532.084L533.684 82.752C535.39 80.448 537.545 79.296 540.148 79.296H542.644V87.872H534.516V112H526.004Z"/>
</mask>
<path d="M238.072 112V67.2H261.432V74.88H246.84V86.08H259.512V93.504H246.84V112H238.072ZM278.301 97.216H271.453C270.557 98.3253 270.109 99.712 270.109 101.376C270.109 103.04 270.578 104.341 271.517 105.28H278.301V97.216ZM264.541 79.296H280.413C282.973 80.832 284.658 82.6027 285.469 84.608C286.28 86.5707 286.685 89.2587 286.685 92.672V102.272C286.685 105.813 286.77 109.056 286.941 112H279.645L278.493 109.696C276.829 111.232 274.482 112 271.453 112H267.421C263.794 109.611 261.981 106.176 261.981 101.696C261.981 97.1733 263.837 93.6107 267.549 91.008H273.565C275.229 91.008 276.786 91.52 278.237 92.544V89.344C278.237 87.68 277.512 86.5707 276.061 86.016H264.541V79.296ZM306.398 79.296H313.182C315.059 81.6853 316.339 84.0747 317.022 86.464C317.704 88.8533 318.046 91.84 318.046 95.424V112H309.534V94.784C309.534 90.7307 308.979 87.808 307.87 86.016H300.702V112H292.19V79.296H298.845L299.998 81.6C300.936 80.7467 301.811 80.1493 302.622 79.808C303.475 79.4667 304.734 79.296 306.398 79.296ZM324.235 97.728V86.016H319.819V79.296H324.235V70.4H332.747V79.296H337.995V86.016H332.747V99.776C332.747 102.379 333.195 104.213 334.091 105.28H337.995V112H328.907C326.645 109.909 325.28 107.648 324.811 105.216C324.427 103.168 324.235 100.672 324.235 97.728ZM357.364 97.216H350.516C349.62 98.3253 349.172 99.712 349.172 101.376C349.172 103.04 349.641 104.341 350.58 105.28H357.364V97.216ZM343.604 79.296H359.476C362.036 80.832 363.721 82.6027 364.532 84.608C365.342 86.5707 365.748 89.2587 365.748 92.672V102.272C365.748 105.813 365.833 109.056 366.004 112H358.708L357.556 109.696C355.892 111.232 353.545 112 350.516 112H346.484C342.857 109.611 341.044 106.176 341.044 101.696C341.044 97.1733 342.9 93.6107 346.612 91.008H352.628C354.292 91.008 355.849 91.52 357.3 92.544V89.344C357.3 87.68 356.574 86.5707 355.124 86.016H343.604V79.296ZM383.988 104.576H395.252V112H378.996C376.18 109.355 374.047 106.005 372.596 101.952C371.145 97.8987 370.42 93.7387 370.42 89.472C370.42 85.1627 371.231 81.024 372.852 77.056C374.473 73.088 376.884 69.8027 380.084 67.2H395.252V74.88H383.988C382.836 76.2027 381.833 78.336 380.98 81.28C380.169 84.224 379.764 87.04 379.764 89.728C379.764 92.416 380.169 95.232 380.98 98.176C381.833 101.12 382.836 103.253 383.988 104.576ZM399.691 112V79.296H405.771L407.371 82.752C409.078 80.448 411.232 79.296 413.835 79.296H416.331V87.872H408.203V112H399.691ZM433.599 86.016H428.799C428.159 86.784 427.625 87.8507 427.199 89.216C426.815 90.5813 426.623 91.904 426.623 93.184H435.775C435.86 91.904 435.689 90.5813 435.263 89.216C434.836 87.808 434.281 86.7413 433.599 86.016ZM442.303 105.28V112H426.047C423.06 109.995 420.948 107.52 419.711 104.576C418.516 101.589 417.919 98.5813 417.919 95.552C417.919 88.5547 420.564 83.136 425.855 79.296H436.223C439.081 81.3867 441.023 83.6053 442.047 85.952C443.071 88.2987 443.583 90.6667 443.583 93.056C443.583 95.4453 443.391 97.4933 443.007 99.2H427.071C427.199 100.181 427.561 101.312 428.159 102.592C428.799 103.829 429.481 104.725 430.207 105.28H442.303ZM463.301 97.216H456.453C455.557 98.3253 455.109 99.712 455.109 101.376C455.109 103.04 455.578 104.341 456.517 105.28H463.301V97.216ZM449.541 79.296H465.413C467.973 80.832 469.658 82.6027 470.469 84.608C471.28 86.5707 471.685 89.2587 471.685 92.672V102.272C471.685 105.813 471.77 109.056 471.941 112H464.645L463.493 109.696C461.829 111.232 459.482 112 456.453 112H452.421C448.794 109.611 446.981 106.176 446.981 101.696C446.981 97.1733 448.837 93.6107 452.549 91.008H458.565C460.229 91.008 461.786 91.52 463.237 92.544V89.344C463.237 87.68 462.512 86.5707 461.061 86.016H449.541V79.296ZM478.11 97.728V86.016H473.694V79.296H478.11V70.4H486.622V79.296H491.87V86.016H486.622V99.776C486.622 102.379 487.07 104.213 487.966 105.28H491.87V112H482.782C480.52 109.909 479.155 107.648 478.686 105.216C478.302 103.168 478.11 100.672 478.11 97.728ZM514.958 112H501.006C496.739 108.032 494.606 102.613 494.606 95.744C494.606 92.288 495.075 89.28 496.014 86.72C496.995 84.16 498.531 81.6853 500.622 79.296H515.598C517.817 81.856 519.331 84.352 520.142 86.784C520.953 89.1733 521.358 92.16 521.358 95.744C521.358 102.613 519.225 108.032 514.958 112ZM505.55 105.28H510.414C511.95 102.293 512.718 98.9013 512.718 95.104C512.718 91.3067 511.929 88.2773 510.35 86.016H505.55C504.014 88.192 503.246 91.2853 503.246 95.296C503.246 99.264 504.014 102.592 505.55 105.28ZM526.004 112V79.296H532.084L533.684 82.752C535.39 80.448 537.545 79.296 540.148 79.296H542.644V87.872H534.516V112H526.004Z" fill="#FFD712"/>
<path d="M238.072 112H235.072V115H238.072V112ZM238.072 67.2V64.2H235.072V67.2H238.072ZM261.432 67.2H264.432V64.2H261.432V67.2ZM261.432 74.88V77.88H264.432V74.88H261.432ZM246.84 74.88V71.88H243.84V74.88H246.84ZM246.84 86.08H243.84V89.08H246.84V86.08ZM259.512 86.08H262.512V83.08H259.512V86.08ZM259.512 93.504V96.504H262.512V93.504H259.512ZM246.84 93.504V90.504H243.84V93.504H246.84ZM246.84 112V115H249.84V112H246.84ZM241.072 112V67.2H235.072V112H241.072ZM238.072 70.2H261.432V64.2H238.072V70.2ZM258.432 67.2V74.88H264.432V67.2H258.432ZM261.432 71.88H246.84V77.88H261.432V71.88ZM243.84 74.88V86.08H249.84V74.88H243.84ZM246.84 89.08H259.512V83.08H246.84V89.08ZM256.512 86.08V93.504H262.512V86.08H256.512ZM259.512 90.504H246.84V96.504H259.512V90.504ZM243.84 93.504V112H249.84V93.504H243.84ZM246.84 109H238.072V115H246.84V109ZM278.301 97.216H281.301V94.216H278.301V97.216ZM271.453 97.216V94.216H270.02L269.119 95.331L271.453 97.216ZM271.517 105.28L269.396 107.401L270.274 108.28H271.517V105.28ZM278.301 105.28V108.28H281.301V105.28H278.301ZM264.541 79.296V76.296H261.541V79.296H264.541ZM280.413 79.296L281.956 76.7235L281.244 76.296H280.413V79.296ZM285.469 84.608L282.688 85.7324L282.692 85.7428L282.696 85.7533L285.469 84.608ZM286.941 112V115H290.12L289.936 111.826L286.941 112ZM279.645 112L276.962 113.342L277.791 115H279.645V112ZM278.493 109.696L281.176 108.354L279.391 104.784L276.458 107.492L278.493 109.696ZM267.421 112L265.771 114.505L266.522 115H267.421V112ZM267.549 91.008V88.008H266.602L265.827 88.5516L267.549 91.008ZM278.237 92.544L276.507 94.9949L281.237 98.3338V92.544H278.237ZM276.061 86.016L277.132 83.2138L276.615 83.016H276.061V86.016ZM264.541 86.016H261.541V89.016H264.541V86.016ZM278.301 94.216H271.453V100.216H278.301V94.216ZM269.119 95.331C267.722 97.0604 267.109 99.1459 267.109 101.376H273.109C273.109 100.278 273.392 99.5903 273.787 99.101L269.119 95.331ZM267.109 101.376C267.109 103.623 267.76 105.766 269.396 107.401L273.638 103.159C273.397 102.917 273.109 102.457 273.109 101.376H267.109ZM271.517 108.28H278.301V102.28H271.517V108.28ZM281.301 105.28V97.216H275.301V105.28H281.301ZM264.541 82.296H280.413V76.296H264.541V82.296ZM278.87 81.8685C281.079 83.1943 282.199 84.5236 282.688 85.7324L288.25 83.4836C287.118 80.6817 284.867 78.4697 281.956 76.7235L278.87 81.8685ZM282.696 85.7533C283.293 87.199 283.685 89.4414 283.685 92.672H289.685C289.685 89.0759 289.266 85.9423 288.242 83.4627L282.696 85.7533ZM283.685 92.672V102.272H289.685V92.672H283.685ZM283.685 102.272C283.685 105.86 283.771 109.162 283.946 112.174L289.936 111.826C289.769 108.95 289.685 105.766 289.685 102.272H283.685ZM286.941 109H279.645V115H286.941V109ZM282.328 110.658L281.176 108.354L275.81 111.038L276.962 113.342L282.328 110.658ZM276.458 107.492C275.513 108.364 273.988 109 271.453 109V115C274.977 115 278.145 114.1 280.528 111.9L276.458 107.492ZM271.453 109H267.421V115H271.453V109ZM269.071 109.495C266.319 107.681 264.981 105.205 264.981 101.696H258.981C258.981 107.147 261.27 111.54 265.771 114.505L269.071 109.495ZM264.981 101.696C264.981 98.1543 266.358 95.5071 269.271 93.4644L265.827 88.5516C261.316 91.7142 258.981 96.1924 258.981 101.696H264.981ZM267.549 94.008H273.565V88.008H267.549V94.008ZM273.565 94.008C274.567 94.008 275.527 94.3028 276.507 94.9949L279.967 90.0931C278.046 88.7372 275.891 88.008 273.565 88.008V94.008ZM281.237 92.544V89.344H275.237V92.544H281.237ZM281.237 89.344C281.237 88.0776 280.958 86.7761 280.204 85.6222C279.439 84.4523 278.343 83.6768 277.132 83.2138L274.99 88.8182C275.119 88.8674 275.176 88.9077 275.191 88.9191C275.202 88.9277 275.193 88.9222 275.182 88.9057C275.153 88.8612 275.237 88.9464 275.237 89.344H281.237ZM276.061 83.016H264.541V89.016H276.061V83.016ZM267.541 86.016V79.296H261.541V86.016H267.541ZM313.182 79.296L315.54 77.4425L314.64 76.296H313.182V79.296ZM318.046 112V115H321.046V112H318.046ZM309.534 112H306.534V115H309.534V112ZM307.869 86.016L310.42 84.4369L309.541 83.016H307.869V86.016ZM300.701 86.016V83.016H297.701V86.016H300.701ZM300.701 112V115H303.701V112H300.701ZM292.189 112H289.189V115H292.189V112ZM292.189 79.296V76.296H289.189V79.296H292.189ZM298.846 79.296L301.529 77.9544L300.7 76.296H298.846V79.296ZM299.997 81.6L297.314 82.9416L299.085 86.4837L302.016 83.8198L299.997 81.6ZM302.621 79.808L301.507 77.0226L301.482 77.0326L301.457 77.0431L302.621 79.808ZM306.397 82.296H313.182V76.296H306.397V82.296ZM310.823 81.1495C312.512 83.2992 313.582 85.346 314.137 87.2882L319.906 85.6398C319.096 82.8033 317.606 80.0714 315.54 77.4425L310.823 81.1495ZM314.137 87.2882C314.717 89.3199 315.046 92.0071 315.046 95.424H321.046C321.046 91.6729 320.691 88.3867 319.906 85.6398L314.137 87.2882ZM315.046 95.424V112H321.046V95.424H315.046ZM318.046 109H309.534V115H318.046V109ZM312.534 112V94.784H306.534V112H312.534ZM312.534 94.784C312.534 90.6036 311.988 86.9698 310.42 84.4369L305.319 87.5951C305.969 88.6462 306.534 90.8578 306.534 94.784H312.534ZM307.869 83.016H300.701V89.016H307.869V83.016ZM297.701 86.016V112H303.701V86.016H297.701ZM300.701 109H292.189V115H300.701V109ZM295.189 112V79.296H289.189V112H295.189ZM292.189 82.296H298.846V76.296H292.189V82.296ZM296.162 80.6376L297.314 82.9416L302.681 80.2584L301.529 77.9544L296.162 80.6376ZM302.016 83.8198C302.804 83.103 303.394 82.7379 303.786 82.5729L301.457 77.0431C300.228 77.5608 299.068 78.3904 297.979 79.3802L302.016 83.8198ZM303.736 82.5934C304.055 82.4656 304.857 82.296 306.397 82.296V76.296C304.61 76.296 302.895 76.4677 301.507 77.0226L303.736 82.5934ZM324.234 86.016H327.234V83.016H324.234V86.016ZM319.818 86.016H316.818V89.016H319.818V86.016ZM319.818 79.296V76.296H316.818V79.296H319.818ZM324.234 79.296V82.296H327.234V79.296H324.234ZM324.234 70.4V67.4H321.234V70.4H324.234ZM332.746 70.4H335.746V67.4H332.746V70.4ZM332.746 79.296H329.746V82.296H332.746V79.296ZM337.994 79.296H340.994V76.296H337.994V79.296ZM337.994 86.016V89.016H340.994V86.016H337.994ZM332.746 86.016V83.016H329.746V86.016H332.746ZM334.09 105.28L331.793 107.21L332.693 108.28H334.09V105.28ZM337.994 105.28H340.994V102.28H337.994V105.28ZM337.994 112V115H340.994V112H337.994ZM328.907 112L326.87 114.203L327.732 115H328.907V112ZM324.811 105.216L321.862 105.769L321.863 105.777L321.865 105.784L324.811 105.216ZM327.234 97.728V86.016H321.234V97.728H327.234ZM324.234 83.016H319.818V89.016H324.234V83.016ZM322.818 86.016V79.296H316.818V86.016H322.818ZM319.818 82.296H324.234V76.296H319.818V82.296ZM327.234 79.296V70.4H321.234V79.296H327.234ZM324.234 73.4H332.746V67.4H324.234V73.4ZM329.746 70.4V79.296H335.746V70.4H329.746ZM332.746 82.296H337.994V76.296H332.746V82.296ZM334.994 79.296V86.016H340.994V79.296H334.994ZM337.994 83.016H332.746V89.016H337.994V83.016ZM329.746 86.016V99.776H335.746V86.016H329.746ZM329.746 99.776C329.746 102.547 330.189 105.299 331.793 107.21L336.388 103.35C336.2 103.128 335.746 102.21 335.746 99.776H329.746ZM334.09 108.28H337.994V102.28H334.09V108.28ZM334.994 105.28V112H340.994V105.28H334.994ZM337.994 109H328.907V115H337.994V109ZM330.943 109.797C329.035 108.033 328.078 106.313 327.756 104.648L321.865 105.784C322.482 108.983 324.255 111.785 326.87 114.203L330.943 109.797ZM327.759 104.663C327.42 102.855 327.234 100.556 327.234 97.728H321.234C321.234 100.788 321.433 103.481 321.862 105.769L327.759 104.663ZM357.364 97.216H360.364V94.216H357.364V97.216ZM350.516 97.216V94.216H349.082L348.182 95.331L350.516 97.216ZM350.579 105.28L348.458 107.401L349.337 108.28H350.579V105.28ZM357.364 105.28V108.28H360.364V105.28H357.364ZM343.604 79.296V76.296H340.604V79.296H343.604ZM359.476 79.296L361.019 76.7235L360.306 76.296H359.476V79.296ZM364.531 84.608L361.75 85.7324L361.754 85.7428L361.759 85.7533L364.531 84.608ZM366.004 112V115H369.182L368.998 111.826L366.004 112ZM358.708 112L356.024 113.342L356.853 115H358.708V112ZM357.555 109.696L360.239 108.354L358.454 104.784L355.521 107.492L357.555 109.696ZM346.483 112L344.833 114.505L345.584 115H346.483V112ZM346.612 91.008V88.008H345.665L344.889 88.5516L346.612 91.008ZM357.299 92.544L355.569 94.9949L360.299 98.3338V92.544H357.299ZM355.124 86.016L356.195 83.2138L355.677 83.016H355.124V86.016ZM343.604 86.016H340.604V89.016H343.604V86.016ZM357.364 94.216H350.516V100.216H357.364V94.216ZM348.182 95.331C346.785 97.0604 346.172 99.1459 346.172 101.376H352.172C352.172 100.278 352.454 99.5903 352.849 99.101L348.182 95.331ZM346.172 101.376C346.172 103.623 346.822 105.766 348.458 107.401L352.701 103.159C352.459 102.917 352.172 102.457 352.172 101.376H346.172ZM350.579 108.28H357.364V102.28H350.579V108.28ZM360.364 105.28V97.216H354.364V105.28H360.364ZM343.604 82.296H359.476V76.296H343.604V82.296ZM357.932 81.8685C360.142 83.1943 361.262 84.5236 361.75 85.7324L367.313 83.4836C366.18 80.6817 363.929 78.4697 361.019 76.7235L357.932 81.8685ZM361.759 85.7533C362.356 87.199 362.747 89.4414 362.747 92.672H368.747C368.747 89.0759 368.328 85.9423 367.304 83.4627L361.759 85.7533ZM362.747 92.672V102.272H368.747V92.672H362.747ZM362.747 102.272C362.747 105.86 362.834 109.162 363.009 112.174L368.998 111.826C368.832 108.95 368.747 105.766 368.747 102.272H362.747ZM366.004 109H358.708V115H366.004V109ZM361.391 110.658L360.239 108.354L354.872 111.038L356.024 113.342L361.391 110.658ZM355.521 107.492C354.576 108.364 353.05 109 350.516 109V115C354.039 115 357.207 114.1 359.59 111.9L355.521 107.492ZM350.516 109H346.483V115H350.516V109ZM348.134 109.495C345.381 107.681 344.044 105.205 344.044 101.696H338.044C338.044 107.147 340.332 111.54 344.833 114.505L348.134 109.495ZM344.044 101.696C344.044 98.1543 345.42 95.5071 348.334 93.4644L344.889 88.5516C340.379 91.7142 338.044 96.1924 338.044 101.696H344.044ZM346.612 94.008H352.628V88.008H346.612V94.008ZM352.628 94.008C353.629 94.008 354.589 94.3028 355.569 94.9949L359.03 90.0931C357.109 88.7372 354.954 88.008 352.628 88.008V94.008ZM360.299 92.544V89.344H354.299V92.544H360.299ZM360.299 89.344C360.299 88.0776 360.021 86.7761 359.266 85.6222C358.501 84.4523 357.406 83.6768 356.195 83.2138L354.052 88.8182C354.181 88.8674 354.238 88.9077 354.253 88.9191C354.264 88.9277 354.255 88.9222 354.245 88.9057C354.215 88.8612 354.299 88.9464 354.299 89.344H360.299ZM355.124 83.016H343.604V89.016H355.124V83.016ZM346.604 86.016V79.296H340.604V86.016H346.604ZM383.988 104.576L381.726 106.546L382.623 107.576H383.988V104.576ZM395.252 104.576H398.252V101.576H395.252V104.576ZM395.252 112V115H398.252V112H395.252ZM378.996 112L376.942 114.187L377.808 115H378.996V112ZM372.596 101.952L375.421 100.941L372.596 101.952ZM372.852 77.056L375.629 78.1907L372.852 77.056ZM380.084 67.2V64.2H379.018L378.191 64.8726L380.084 67.2ZM395.252 67.2H398.252V64.2H395.252V67.2ZM395.252 74.88V77.88H398.252V74.88H395.252ZM383.988 74.88V71.88H382.623L381.726 72.9097L383.988 74.88ZM380.98 81.28L378.099 80.4448L378.093 80.4641L378.088 80.4836L380.98 81.28ZM380.98 98.176L378.088 98.9724L378.093 98.9919L378.099 99.0112L380.98 98.176ZM383.988 107.576H395.252V101.576H383.988V107.576ZM392.252 104.576V112H398.252V104.576H392.252ZM395.252 109H378.996V115H395.252V109ZM381.05 109.813C378.618 107.529 376.73 104.599 375.421 100.941L369.771 102.963C371.364 107.412 373.742 111.18 376.942 114.187L381.05 109.813ZM375.421 100.941C374.085 97.2092 373.42 93.391 373.42 89.472H367.42C367.42 94.0864 368.206 98.5882 369.771 102.963L375.421 100.941ZM373.42 89.472C373.42 85.5497 374.156 81.7966 375.629 78.1907L370.075 75.9213C368.306 80.2514 367.42 84.7757 367.42 89.472H373.42ZM375.629 78.1907C377.068 74.6691 379.183 71.8002 381.977 69.5274L378.191 64.8726C374.585 67.8051 371.879 71.5068 370.075 75.9213L375.629 78.1907ZM380.084 70.2H395.252V64.2H380.084V70.2ZM392.252 67.2V74.88H398.252V67.2H392.252ZM395.252 71.88H383.988V77.88H395.252V71.88ZM381.726 72.9097C380.148 74.7212 378.996 77.3498 378.099 80.4448L383.861 82.1152C384.671 79.3222 385.524 77.6842 386.25 76.8503L381.726 72.9097ZM378.088 80.4836C377.215 83.6525 376.764 86.7373 376.764 89.728H382.764C382.764 87.3427 383.124 84.7955 383.872 82.0764L378.088 80.4836ZM376.764 89.728C376.764 92.7187 377.215 95.8035 378.088 98.9724L383.872 97.3796C383.124 94.6604 382.764 92.1133 382.764 89.728H376.764ZM378.099 99.0112C378.996 102.106 380.148 104.735 381.726 106.546L386.25 102.606C385.524 101.772 384.671 100.134 383.861 97.3408L378.099 99.0112ZM399.691 112H396.691V115H399.691V112ZM399.691 79.296V76.296H396.691V79.296H399.691ZM405.771 79.296L408.493 78.0356L407.688 76.296H405.771V79.296ZM407.371 82.752L404.649 84.0124L406.773 88.6L409.782 84.5377L407.371 82.752ZM416.331 79.296H419.331V76.296H416.331V79.296ZM416.331 87.872V90.872H419.331V87.872H416.331ZM408.203 87.872V84.872H405.203V87.872H408.203ZM408.203 112V115H411.203V112H408.203ZM402.691 112V79.296H396.691V112H402.691ZM399.691 82.296H405.771V76.296H399.691V82.296ZM403.049 80.5564L404.649 84.0124L410.093 81.4916L408.493 78.0356L403.049 80.5564ZM409.782 84.5377C410.989 82.9077 412.289 82.296 413.835 82.296V76.296C410.175 76.296 407.166 77.9883 404.96 80.9663L409.782 84.5377ZM413.835 82.296H416.331V76.296H413.835V82.296ZM413.331 79.296V87.872H419.331V79.296H413.331ZM416.331 84.872H408.203V90.872H416.331V84.872ZM405.203 87.872V112H411.203V87.872H405.203ZM408.203 109H399.691V115H408.203V109ZM433.598 86.016L435.783 83.9599L434.895 83.016H433.598V86.016ZM428.799 86.016V83.016H427.393L426.494 84.0954L428.799 86.016ZM427.199 89.216L424.335 88.3212L424.322 88.3623L424.311 88.4038L427.199 89.216ZM426.622 93.184H423.622V96.184H426.622V93.184ZM435.775 93.184V96.184H438.581L438.768 93.3836L435.775 93.184ZM435.262 89.216L432.391 90.086L432.395 90.0984L432.399 90.1108L435.262 89.216ZM442.303 105.28H445.303V102.28H442.303V105.28ZM442.303 112V115H445.303V112H442.303ZM426.046 112L424.374 114.491L425.133 115H426.046V112ZM419.71 104.576L416.925 105.69L416.935 105.714L416.945 105.738L419.71 104.576ZM425.855 79.296V76.296H424.881L424.092 76.8681L425.855 79.296ZM436.223 79.296L437.993 76.8745L437.202 76.296H436.223V79.296ZM442.047 85.952L439.297 87.1518L442.047 85.952ZM443.007 99.2V102.2H445.407L445.933 99.8585L443.007 99.2ZM427.07 99.2V96.2H423.654L424.096 99.588L427.07 99.2ZM428.159 102.592L425.44 103.861L425.466 103.916L425.494 103.97L428.159 102.592ZM430.206 105.28L428.384 107.663L429.191 108.28H430.206V105.28ZM433.598 83.016H428.799V89.016H433.598V83.016ZM426.494 84.0954C425.519 85.2658 424.832 86.7296 424.335 88.3212L430.062 90.1108C430.418 88.9717 430.798 88.3022 431.103 87.9366L426.494 84.0954ZM424.311 88.4038C423.86 90.0052 423.622 91.6016 423.622 93.184H429.622C429.622 92.2064 429.769 91.1574 430.086 90.0282L424.311 88.4038ZM426.622 96.184H435.775V90.184H426.622V96.184ZM438.768 93.3836C438.881 91.6937 438.65 89.9996 438.126 88.3212L432.399 90.1108C432.728 91.1631 432.839 92.1143 432.781 92.9844L438.768 93.3836ZM438.134 88.346C437.632 86.6895 436.898 85.1444 435.783 83.9599L431.414 88.0721C431.664 88.3383 432.04 88.9265 432.391 90.086L438.134 88.346ZM439.303 105.28V112H445.303V105.28H439.303ZM442.303 109H426.046V115H442.303V109ZM427.719 109.509C425.155 107.788 423.459 105.751 422.476 103.414L416.945 105.738C418.437 109.289 420.965 112.201 424.374 114.491L427.719 109.509ZM422.496 103.462C421.434 100.807 420.919 98.1765 420.919 95.552H414.919C414.919 98.9862 415.598 102.371 416.925 105.69L422.496 103.462ZM420.919 95.552C420.919 89.4364 423.165 84.9546 427.617 81.7239L424.092 76.8681C417.962 81.3174 414.919 87.6729 414.919 95.552H420.919ZM425.855 82.296H436.223V76.296H425.855V82.296ZM434.452 81.7175C437.038 83.6095 438.551 85.4435 439.297 87.1518L444.796 84.7522C443.494 81.7672 441.124 79.1639 437.993 76.8745L434.452 81.7175ZM439.297 87.1518C440.168 89.1475 440.583 91.1085 440.583 93.056H446.583C446.583 90.2248 445.973 87.4498 444.796 84.7522L439.297 87.1518ZM440.583 93.056C440.583 95.2983 440.401 97.1132 440.08 98.5415L445.933 99.8585C446.38 97.8735 446.583 95.5924 446.583 93.056H440.583ZM443.007 96.2H427.07V102.2H443.007V96.2ZM424.096 99.588C424.276 100.974 424.763 102.411 425.44 103.861L430.877 101.323C430.359 100.213 430.121 99.3887 430.045 98.812L424.096 99.588ZM425.494 103.97C426.24 105.413 427.172 106.736 428.384 107.663L432.029 102.897C431.791 102.715 431.357 102.245 430.823 101.214L425.494 103.97ZM430.206 108.28H442.303V102.28H430.206V108.28ZM463.301 97.216H466.301V94.216H463.301V97.216ZM456.453 97.216V94.216H455.02L454.119 95.331L456.453 97.216ZM456.517 105.28L454.396 107.401L455.274 108.28H456.517V105.28ZM463.301 105.28V108.28H466.301V105.28H463.301ZM449.541 79.296V76.296H446.541V79.296H449.541ZM465.413 79.296L466.956 76.7235L466.244 76.296H465.413V79.296ZM470.469 84.608L467.688 85.7324L467.692 85.7428L467.696 85.7533L470.469 84.608ZM471.941 112V115H475.12L474.936 111.826L471.941 112ZM464.645 112L461.962 113.342L462.791 115H464.645V112ZM463.493 109.696L466.176 108.354L464.391 104.784L461.458 107.492L463.493 109.696ZM452.421 112L450.771 114.505L451.522 115H452.421V112ZM452.549 91.008V88.008H451.602L450.827 88.5516L452.549 91.008ZM463.237 92.544L461.507 94.9949L466.237 98.3338V92.544H463.237ZM461.061 86.016L462.132 83.2138L461.615 83.016H461.061V86.016ZM449.541 86.016H446.541V89.016H449.541V86.016ZM463.301 94.216H456.453V100.216H463.301V94.216ZM454.119 95.331C452.722 97.0604 452.109 99.1459 452.109 101.376H458.109C458.109 100.278 458.392 99.5903 458.787 99.101L454.119 95.331ZM452.109 101.376C452.109 103.623 452.76 105.766 454.396 107.401L458.638 103.159C458.397 102.917 458.109 102.457 458.109 101.376H452.109ZM456.517 108.28H463.301V102.28H456.517V108.28ZM466.301 105.28V97.216H460.301V105.28H466.301ZM449.541 82.296H465.413V76.296H449.541V82.296ZM463.87 81.8685C466.079 83.1943 467.199 84.5236 467.688 85.7324L473.25 83.4836C472.118 80.6817 469.867 78.4697 466.956 76.7235L463.87 81.8685ZM467.696 85.7533C468.293 87.199 468.685 89.4414 468.685 92.672H474.685C474.685 89.0759 474.266 85.9423 473.242 83.4627L467.696 85.7533ZM468.685 92.672V102.272H474.685V92.672H468.685ZM468.685 102.272C468.685 105.86 468.771 109.162 468.946 112.174L474.936 111.826C474.769 108.95 474.685 105.766 474.685 102.272H468.685ZM471.941 109H464.645V115H471.941V109ZM467.328 110.658L466.176 108.354L460.81 111.038L461.962 113.342L467.328 110.658ZM461.458 107.492C460.513 108.364 458.988 109 456.453 109V115C459.977 115 463.145 114.1 465.528 111.9L461.458 107.492ZM456.453 109H452.421V115H456.453V109ZM454.071 109.495C451.319 107.681 449.981 105.205 449.981 101.696H443.981C443.981 107.147 446.27 111.54 450.771 114.505L454.071 109.495ZM449.981 101.696C449.981 98.1543 451.358 95.5071 454.271 93.4644L450.827 88.5516C446.316 91.7142 443.981 96.1924 443.981 101.696H449.981ZM452.549 94.008H458.565V88.008H452.549V94.008ZM458.565 94.008C459.567 94.008 460.527 94.3028 461.507 94.9949L464.967 90.0931C463.046 88.7372 460.891 88.008 458.565 88.008V94.008ZM466.237 92.544V89.344H460.237V92.544H466.237ZM466.237 89.344C466.237 88.0776 465.958 86.7761 465.204 85.6222C464.439 84.4523 463.343 83.6768 462.132 83.2138L459.99 88.8182C460.118 88.8674 460.176 88.9077 460.191 88.9191C460.202 88.9277 460.193 88.9222 460.182 88.9057C460.153 88.8612 460.237 88.9464 460.237 89.344H466.237ZM461.061 83.016H449.541V89.016H461.061V83.016ZM452.541 86.016V79.296H446.541V86.016H452.541ZM478.109 86.016H481.109V83.016H478.109V86.016ZM473.693 86.016H470.693V89.016H473.693V86.016ZM473.693 79.296V76.296H470.693V79.296H473.693ZM478.109 79.296V82.296H481.109V79.296H478.109ZM478.109 70.4V67.4H475.109V70.4H478.109ZM486.622 70.4H489.622V67.4H486.622V70.4ZM486.622 79.296H483.622V82.296H486.622V79.296ZM491.87 79.296H494.87V76.296H491.87V79.296ZM491.87 86.016V89.016H494.87V86.016H491.87ZM486.622 86.016V83.016H483.622V86.016H486.622ZM487.965 105.28L485.668 107.21L486.568 108.28H487.965V105.28ZM491.87 105.28H494.87V102.28H491.87V105.28ZM491.87 112V115H494.87V112H491.87ZM482.781 112L480.745 114.203L481.607 115H482.781V112ZM478.686 105.216L475.737 105.769L475.738 105.777L475.74 105.784L478.686 105.216ZM481.109 97.728V86.016H475.109V97.728H481.109ZM478.109 83.016H473.693V89.016H478.109V83.016ZM476.693 86.016V79.296H470.693V86.016H476.693ZM473.693 82.296H478.109V76.296H473.693V82.296ZM481.109 79.296V70.4H475.109V79.296H481.109ZM478.109 73.4H486.622V67.4H478.109V73.4ZM483.622 70.4V79.296H489.622V70.4H483.622ZM486.622 82.296H491.87V76.296H486.622V82.296ZM488.87 79.296V86.016H494.87V79.296H488.87ZM491.87 83.016H486.622V89.016H491.87V83.016ZM483.622 86.016V99.776H489.622V86.016H483.622ZM483.622 99.776C483.622 102.547 484.064 105.299 485.668 107.21L490.263 103.35C490.075 103.128 489.622 102.21 489.622 99.776H483.622ZM487.965 108.28H491.87V102.28H487.965V108.28ZM488.87 105.28V112H494.87V105.28H488.87ZM491.87 109H482.781V115H491.87V109ZM484.818 109.797C482.91 108.033 481.953 106.313 481.631 104.648L475.74 105.784C476.357 108.983 478.13 111.785 480.745 114.203L484.818 109.797ZM481.634 104.663C481.295 102.855 481.109 100.556 481.109 97.728H475.109C475.109 100.788 475.308 103.481 475.737 105.769L481.634 104.663ZM514.958 112V115H516.137L517.001 114.197L514.958 112ZM501.006 112L498.963 114.197L499.827 115H501.006V112ZM496.014 86.72L493.213 85.6462L493.205 85.6667L493.197 85.6872L496.014 86.72ZM500.622 79.296V76.296H499.261L498.364 77.3205L500.622 79.296ZM515.598 79.296L517.865 77.3312L516.968 76.296H515.598V79.296ZM520.142 86.784L517.296 87.7327L517.298 87.7403L517.301 87.7479L520.142 86.784ZM505.55 105.28L502.945 106.768L503.809 108.28H505.55V105.28ZM510.414 105.28V108.28H512.245L513.082 106.652L510.414 105.28ZM510.35 86.016L512.81 84.2987L511.914 83.016H510.35V86.016ZM505.55 86.016V83.016H503.996L503.099 84.2859L505.55 86.016ZM514.958 109H501.006V115H514.958V109ZM503.049 109.803C499.502 106.505 497.606 101.942 497.606 95.744H491.606C491.606 103.284 493.976 109.559 498.963 114.197L503.049 109.803ZM497.606 95.744C497.606 92.5503 498.041 89.9068 498.831 87.7528L493.197 85.6872C492.11 88.6532 491.606 92.0257 491.606 95.744H497.606ZM498.815 87.7938C499.652 85.6118 500.986 83.436 502.88 81.2715L498.364 77.3205C496.077 79.9346 494.339 82.7082 493.213 85.6462L498.815 87.7938ZM500.622 82.296H515.598V76.296H500.622V82.296ZM513.331 81.2608C515.37 83.614 516.643 85.7731 517.296 87.7327L522.988 85.8353C522.02 82.9309 520.263 80.098 517.865 77.3312L513.331 81.2608ZM517.301 87.7479C517.972 89.7263 518.358 92.3616 518.358 95.744H524.358C524.358 91.9584 523.933 88.6203 522.983 85.8201L517.301 87.7479ZM518.358 95.744C518.358 101.942 516.462 106.505 512.915 109.803L517.001 114.197C521.988 109.559 524.358 103.284 524.358 95.744H518.358ZM505.55 108.28H510.414V102.28H505.55V108.28ZM513.082 106.652C514.863 103.188 515.718 99.3156 515.718 95.104H509.718C509.718 98.487 509.037 101.398 507.746 103.908L513.082 106.652ZM515.718 95.104C515.718 90.9179 514.85 87.2214 512.81 84.2987L507.89 87.7333C509.007 89.3333 509.718 91.6955 509.718 95.104H515.718ZM510.35 83.016H505.55V89.016H510.35V83.016ZM503.099 84.2859C501.067 87.1652 500.246 90.9611 500.246 95.296H506.246C506.246 91.6095 506.961 89.2188 508.001 87.746L503.099 84.2859ZM500.246 95.296C500.246 99.6421 501.087 103.517 502.945 106.768L508.155 103.792C506.941 101.667 506.246 98.8859 506.246 95.296H500.246ZM526.004 112H523.004V115H526.004V112ZM526.004 79.296V76.296H523.004V79.296H526.004ZM532.083 79.296L534.806 78.0356L534.001 76.296H532.083V79.296ZM533.684 82.752L530.961 84.0124L533.085 88.6L536.094 84.5377L533.684 82.752ZM542.643 79.296H545.643V76.296H542.643V79.296ZM542.643 87.872V90.872H545.643V87.872H542.643ZM534.516 87.872V84.872H531.516V87.872H534.516ZM534.516 112V115H537.516V112H534.516ZM529.004 112V79.296H523.004V112H529.004ZM526.004 82.296H532.083V76.296H526.004V82.296ZM529.361 80.5564L530.961 84.0124L536.406 81.4916L534.806 78.0356L529.361 80.5564ZM536.094 84.5377C537.302 82.9077 538.602 82.296 540.147 82.296V76.296C536.488 76.296 533.479 77.9883 531.273 80.9663L536.094 84.5377ZM540.147 82.296H542.643V76.296H540.147V82.296ZM539.643 79.296V87.872H545.643V79.296H539.643ZM542.643 84.872H534.516V90.872H542.643V84.872ZM531.516 87.872V112H537.516V87.872H531.516ZM534.516 109H526.004V115H534.516V109Z" fill="black" mask="url(#path-84-outside-1_1_240)"/>
</svg>
