<?xml version="1.0" encoding="utf-8"?>
<!-- Generator: Adobe Illustrator 28.0.0, SVG Export Plug-In . SVG Version: 6.00 Build 0)  -->
<svg version="1.1" id="Livello_1" xmlns="http://www.w3.org/2000/svg" xmlns:xlink="http://www.w3.org/1999/xlink" x="0px" y="0px"
	 viewBox="0 0 334.8 332.6" style="enable-background:new 0 0 334.8 332.6;" xml:space="preserve">
<style type="text/css">
	.st0{fill:#05131B;}
	.st1{fill:#DCEAE9;}
	.st2{fill:#C8DADB;}
	.st3{fill:#C0D0CF;}
	.st4{fill:#C5D4D1;}
	.st5{fill:#FFD712;}
	.st6{fill:#F79A2B;}
	.st7{fill:#DDB57A;}
	.st8{fill:#C0C0C0;}
	.st9{fill:#FF8585;}
	.st10{fill:#D288D8;}
	.st11{fill:#7E99A6;}
	.st12{fill:#0568E1;}
	.st13{fill:#3FC5FA;}
	.st14{fill:#B0C2C4;}
</style>
<path class="st0" d="M281.1,106.1c-3.8-5.6-8.6-9.3-15-11.3c-0.9-0.3-1.8-0.4-2.7-0.6c-0.7,0.1-1.5,0-2.2-0.1c-3,0-6,0.5-8.6,2.3
	c-1,0.7-1.8,0.8-2.5-0.7c-1.3-2.9-2.8-5.7-4.2-8.5c-3.9-5.5-7.2-11.5-11.9-16.4c-9.8-10.2-21.3-17.7-34.9-22.2
	c-9.9-3.3-19.9-5.1-30.1-5.5c-11.4-0.4-22.9,0-33.8,4.1c-7.1,2.7-14.7,3.2-22.1,4.5c-2.8,0.5-4.3,1.3-4.1,4.6c0.2,4.8-4,7-6.9,9.8
	c-0.5,0.5-1.3,0.9-1.9,1.3c-0.4,0.4-0.7,0.8-1.1,1.2c0.1,0.8-0.4,1.3-0.9,1.8c-9,10.7-16.5,22.2-20.8,35.6
	c-5.6,17.9-5.6,35.8,0.3,53.7c1.2,3.8,2.6,7.5,3.9,11.2c3.6,7,7.5,13.8,12.5,19.9c2.2,2.7,4.4,5.3,6.9,7.6
	c9.6,8.9,16.2,20.1,23.7,30.6c2.3,3.3,4,7.1,7.7,9.2c0.5-0.4,1.1-0.9,1.6-1.3c0-0.2,0.1-0.4,0.2-0.5c0.4-0.6,0.8-1.2,1.3-1.7
	c5.3-7.7,10.5-15.4,15.8-23.1c1-1.5,1.8-3.1,2.3-4.8c0.1-1.6,0.3-3.1,0.4-4.7c0-0.8,0-1.6,0-2.4c0-2.4,0-4.8,0-7.2
	c0.2-12.6,0.5-25.1,0.6-37.7c0-2.5,0.6-3.2,3.4-3.1c11.2,0.1,22.3-0.3,33.5-0.5c0.5,0,1,0,1.5,0c1.6-0.1,3.8-0.3,4.4,1
	c0.6,1.2-1.5,2.2-2.5,3.3c-8.7,8.9-17.3,17.9-26,26.7c-5,5.1-7.4,11.2-8.3,18.1c-1.3,9.4-3,18.7-5.4,27.9c-0.6,2.3-0.6,3.4,0.4,3.6
	c1.9-0.4,3.8-0.8,5.6-1.5c1.4-0.5,2.7-1,4.2-1.3c0.9-0.2,1.7-0.5,2.6-0.7c5-1.8,10-3.8,15-5.5c0.8-0.3,1.6-0.6,2.4-0.9
	c0.1,0,0.1-0.1,0.2-0.1c2.6-1.4,5.5-2.1,8.2-3.3c2.5-1.1,5-2.2,7.5-3.2c2.2-1,4.4-2.1,6.6-3.1l0,0c3.6-2,7.3-4,10.9-6
	c1.8-1.4,3.6-2.7,5.4-4.1c0.9-1,1.9-1.9,3-2.7c0-0.1,0-0.2,0-0.3c0-0.2,0.1-0.3,0.2-0.4c0,0,0-0.1,0-0.1c0.1-0.2,0.3-0.4,0.5-0.5
	c0.1-0.1,0.2-0.1,0.4-0.2c0.1,0,0.2,0,0.3,0c0.3-0.2,0.6-0.4,0.9-0.6c0.6-0.7,1.3-1.4,1.9-2.2c0.3-0.5,0.8-0.9,1.2-1.3
	c4.1-4.5,8.1-9.1,11.3-14.3c1-1.6,1.9-3.2,2.9-4.8c0.5-1,0.9-2,1.5-2.9c0.7-1,1.2-1.8,1.7-2.9c0.2-0.6,0.5-1.1,0.9-1.6
	c1-1.9,1.9-3.9,2.7-5.8c0.4-1,0.9-2,1.4-3c0.3-1,0.8-2,1.6-2.5c0.8-1,1.7-1.9,2.9-2.6c7.4-7.6,14.1-15.9,21.3-23.7
	C285.9,124,287.3,115.3,281.1,106.1z M109,190c-0.8,0.2-1.3-0.4-1.7-0.9c-1-1.2-1.9-2.5-2.9-3.7C84.9,163.5,77.8,126.3,93,97.9
	c0-1,0.3-1.8,1-2.4c0-0.9,0.5-1.5,1.2-1.9c0.3-0.4,0.5-0.9,0.8-1.3l0-0.2l0.2-0.1c0.7-0.8,1.3-1.6,1.9-2.4c0.3-1.3,0.9-2.3,1.8-3.2
	c0.4-1,1-1.8,1.8-2.4c0.2-0.2,0.4-0.4,0.5-0.6c1.9-2.6,3.7-5.3,6.8-7.6v5.9c0,9.8,0,19.6,0,29.4c0,22.2,0,44.4,0.1,66.7
	c0,3.5,0.3,7,0.4,10.4C109.5,188.8,109.9,189.7,109,190z M136.2,217.5c-0.6,0.8-1.1,1.7-1.7,2.4c-2.8,3-3.8,2.9-5.6-0.7
	c-2.4-4.6-5.9-8.4-8.9-12.6c4.1-1,7.6-3.2,10.6-6c1.1-1,1.4-1.1,2.7,0c3,2.7,5.9,6.2,10.9,5.6C141.4,210.3,138.8,213.9,136.2,217.5z
	 M194.5,139.4c-0.1,2.3-1,3-3.3,3c-11.4,0.2-22.8,0.5-34.1-0.1c-1.9-0.1-3.7-0.1-5.6-0.1c-5.2,0.1-5.4-0.1-5.6,4.2
	c-0.8,15.4-0.3,30.9-0.5,46.3c0,1.4,0.8,3.1-1.1,3.9c-1.8,0.8-3.6,0.8-5.2-0.8c-0.8-0.9-1.7-1.7-2.5-2.6c-3.1-3.3-4.7-3.3-8-0.2
	c-1.3,1.2-2.6,2.5-3.9,3.7l-0.9,0.6l0.1,0c-2.5,2.2-3.9,2.1-5.5-0.2c-0.1-0.1-0.1-0.2-0.2-0.3c0,0,0.1-0.1,0.1-0.2
	c0-0.3,0-0.6-0.1-0.9c-0.1-0.2-0.2-0.3-0.2-0.5c0-0.1,0.1-0.2,0.1-0.3c0-2.3,0-4.5,0-6.8c-0.8-8.4-0.3-16.7,0-25.1
	c-0.1-3.5-0.2-7.1-0.3-10.6c-0.1-1.3,0-2.7,0.2-4c0-1.3,0-2.7,0-4c0-0.6,0-1.3,0-1.9c0-4.2,0-8.3,0-12.5c0-0.6,0-1.3,0-1.9
	c0-4.7-0.1-9.4-0.1-14c0-15.3,0-30.5,0.1-45.8c0-1.8-0.1-3.6,0.5-5.3c0-4.2,0-4.2,4-4.1c0.9,0,1.8,0,2.7,0.1
	c11.7-0.7,23.4-0.4,35.1-0.2c7.3,0.2,14.7-0.4,22-0.3c1.8,0,3.6,0.1,5.4,0.1c3.7,0.1,7.3,0.3,11,0.2c2.8-0.1,3.1,0.9,1.9,3.1
	c0,6.9,0,13.7,0.1,20.6c0.1,2.7-1.5,2.8-3.5,2.8c-12,0-23.9,0-35.9,0c-4.2,0-8.4,0-12.6,0c-1.9,0-3.2,0.8-3.2,2.7
	c0,9.3,0.1,18.5,1.3,27.7c15-0.1,30-0.2,45.1-0.3c1.3,0,3.1-0.5,2.5,2C194.9,124.9,194.9,132.1,194.5,139.4z M195.9,106.9
	c-12.9,0-25.7,0-38.6,0.1c-2,0-2.9-0.3-2.7-2.5c0.2-2.7,0.2-5.4,0-8.1c-0.1-2.1,0.7-2.7,2.6-2.5c5.4,0.5,10.8,0.4,16.1,0.4
	c9.9,0,19.7,0,29.6,0c3.7,0,5.9-1.7,6.6-5.4c0.2-1,0.2-2,0.2-3c-0.2-3.4-0.6-6.8-0.2-10.2c-0.3-2.2-0.2-4.3-0.1-6.5
	c0.1-2.4,1.3-2,2.5-1.1c1.5,1.2,3.2,2.1,4.8,3.1c3.6,1.4,6.4,4,8.7,7c4,5.2,8.4,10.2,11.8,15.8c1.7,2.7,2.6,6.2,4.1,9.2
	c0.4,0.9-0.2,1.3-0.6,1.8c-4.3,4.6-8.7,9-13,13.6c-4.3,4.6-7.9,9.9-12.2,14.6c-3.4,3.6-7,7.1-10,11.1c-0.5,0.7-1.1,1.5-2.2,1.7
	c-0.8-1-0.8-2.3-0.8-3.6c0-8.5-0.1-17,0.4-25.4c0.1-1,0.1-2,0.1-3C202.9,109.2,200.7,106.9,195.9,106.9z M184.7,212.7
	c-3.6,0.9-7.2,1.9-10.5,3.6c-1.3,0.6-2.2,0.8-3.1-1.1c-0.9-2-2.1-4.4-4.9-4.3c1.4-5.6,2.8-11,4.1-16.1c5.8-0.9,5.2,3.6,5.8,6.8
	c0.3,1.8,0.8,2.5,2.6,2.3c1-0.1,2,0,3,0c5.2,0.1,5.1,0.1,5.4,5.3C187.2,211.3,186.6,212.2,184.7,212.7z M190.1,186.1
	c-0.2,0.2-0.5,0.5-0.7,0.7l0,0c-0.8,0.6-1.6,1.2-2.4,1.9l0,0c-1,1.1-2.3,1.8-3.7,2.1c-2.4-0.1-4.5-1.6-6.8-2.1
	c-1.3-0.3-0.4-1.3,0-1.8c1.5-1.6,3-3.1,4.6-4.6c5.5-5.3,9.9-11.8,15.9-16.6l0.6-0.5c0.2-0.2,0.4-0.4,0.7-0.7
	c0.2-0.2,0.4-0.4,0.6-0.6l0,0c0.2-0.2,0.4-0.4,0.6-0.6l0,0c0.2-0.2,0.4-0.4,0.6-0.6l0,0.1l0.6-0.7l-0.1,0c0.2-0.2,0.4-0.5,0.6-0.7
	l-0.1,0.1c2.3-3.2,5.2-5.9,8.1-8.7c5.9-5.7,10.8-12.4,16.6-18.2c1.7-2.9,1.7-2.9,4.3,0c0,0,0,0,0,0c0.2,0.2,0.4,0.4,0.6,0.6l0,0
	c0.2,0.2,0.4,0.4,0.6,0.6l0,0c0.4,0.4,0.9,0.8,1.4,1.1c1.8,1.2,2.5,2.4,0.5,4.1c-0.5,0.4-0.8,1.1-1.1,1.6l0,0
	c-0.3,0.4-0.6,0.7-0.8,1.1l0-0.1c-0.4,0.4-0.8,0.9-1.2,1.3l0-0.1c-0.2,0.2-0.4,0.5-0.6,0.7l0,0c-0.2,0.2-0.3,0.4-0.5,0.6l-0.1,0.1
	c-0.1,0.2-0.3,0.3-0.4,0.5c0,0.1-0.1,0.2-0.3,0.3c-0.1,0.2-0.2,0.3-0.4,0.5l-0.2-0.2l0.2,0.2c-0.2,0.2-0.3,0.4-0.5,0.6l-0.1,0.1
	c-0.5,0.5-1,1-1.5,1.5l0.1-0.1c-0.2,0.2-0.4,0.5-0.7,0.7l0.1-0.1c-0.2,0.2-0.4,0.5-0.7,0.7l0.1-0.1c-0.2,0.2-0.4,0.4-0.5,0.6
	c-1,1-2,2.1-3,3.1c-0.2,0.2-0.4,0.5-0.6,0.7l0.1-0.1c-0.2,0.2-0.4,0.4-0.6,0.7l0,0c-0.3,0.3-0.6,0.6-0.9,1c0,0,0,0,0,0l-1.2,1.3l0,0
	c-1,1.4-2.2,2.6-3.6,3.6c-0.4,0.4-0.8,0.8-1.2,1.2l-0.2,0.1c-0.3,0.3-0.6,0.5-0.8,0.8l0.1-0.1c-0.2,0.2-0.4,0.4-0.7,0.6
	c-6.7,7.5-13.7,14.7-21,21.5c-0.2,0.2-0.4,0.4-0.6,0.6L190.1,186.1z M248.1,153.8c-16.6,16.8-33.2,33.6-49.8,50.3
	c-1.2,1.2-2.4,2.6-4.3,1.1c-0.6-0.5-1.2-0.9-1.1-1.8l0,0c-1-1.4-1.5-3-0.9-4.7c0.3-0.5,0.6-1.1,1-1.6c0-0.2,0.1-0.4,0.3-0.5l0.1-0.1
	c0.3-0.3,0.5-0.6,0.8-0.9c0.2-0.2,0.4-0.5,0.6-0.7c0.2-0.2,0.4-0.4,0.6-0.6l0,0c0.2-0.2,0.4-0.4,0.7-0.6l-0.1,0
	c0.2-0.2,0.4-0.4,0.7-0.6c0,0,0,0.1,0,0.1l0.7-0.6c0,0-0.1,0-0.1,0c0.2-0.2,0.4-0.5,0.6-0.7c0.2-0.2,0.3-0.3,0.5-0.5
	c0.3-0.4,0.6-0.9,1.2-0.7c0-0.9,0.6-1.2,1.3-1.5c1.4-0.8,2.4-2,3.2-3.2c0.3-0.8,0.6-1.6,1.6-1.7c-0.1-0.5,0.1-0.7,0.6-0.6
	c3.6-4.3,7.6-8.4,11.9-12c0.2-1,0.6-1.8,1.8-1.8c0.1-1.1,0.7-1.7,1.8-1.8c-0.1-0.5,0.1-0.7,0.6-0.6c-0.1-0.5,0.1-0.7,0.6-0.6
	c2.8-3.5,5.7-7.1,9.6-9.6l0,0c2.2-2.6,4.5-5,7.2-7.2l0,0c0.2-0.3,0.4-0.6,0.6-0.8c1.1-0.9,1.7-2.8,3.9-1.7c2.2,1.1,3.8,2.8,5,4.9
	C249.4,153,248.5,153.4,248.1,153.8z M255.6,146.2c-1.1,0.6-1.8-0.9-2.5-1.6c-6.2-6-12.3-11.9-18.4-17.9c-1.2-1.2-2.3-2.4-1-4.1
	c1.3-1.7,2.6-0.4,3.9,0.1c2.7,1,4.8,2.8,6.8,4.7c4.3,4.3,8.6,8.6,12.9,12.9c0.5,0.5,1.3,0.9,1.3,2
	C257.7,143.7,257,145.4,255.6,146.2z M265.4,135.7c-0.9,1.4-1.9,0.4-2.6-0.4c-3.9-4.3-8.6-7.7-12.8-11.6c-1.6-1.5-3.4-2.9-5.6-3.7
	c-1.6-0.6-3.4-2-2.8-4.3c0.4-1.6,1.6-2.7,3.1-3.3c1.4,0.4,2.7,1,3.7,1.9c6.4,5.4,12,11.6,18.1,17.3
	C268.5,133.4,266.1,134.5,265.4,135.7z M272.6,123.2c-0.5,2.3-1.5,1.1-2.4,0.3c-4.5-4.4-9.1-8.6-13.9-12.6c-0.2-0.2-0.5-0.4-0.6-0.6
	c-0.5-1.3-3.6-0.4-2.6-2.7c1-2.3,2.9-4,5.7-4.2c7.5-0.6,13.3,3.3,16.3,10.8C277.1,117.9,275,120.6,272.6,123.2z"/>
<path class="st1" d="M202.5,214.8c1.8-0.8,3.5-1.6,5.2-2.5c0,0,0,0,0,0c-2.2,1.1-4.4,2.1-6.6,3.1C201.6,215.2,202,215,202.5,214.8z"
	/>
<path class="st1" d="M167.7,228.4c0.4-0.1,0.8-0.2,1.2-0.3c1.6-0.3,2.9-0.9,4.3-1.5c1.4-0.5,2.8-1,4.1-1.6c2.6-1,5.3-1.7,7.8-3
	c-0.8,0.3-1.6,0.6-2.4,0.9C177.7,224.6,172.8,226.6,167.7,228.4z"/>
<path class="st2" d="M233.2,44.1c-0.2,0.1-0.4,0.4-0.6,0.4c-0.4,0.1-0.8,0-0.9-0.4c0-0.1,0.3-0.5,0.5-0.5
	C232.5,43.5,232.9,43.6,233.2,44.1z"/>
<path class="st2" d="M100.1,67.5c-0.4,0.4-0.8,0.8-1.1,1.2C98.1,67.1,99.4,67.6,100.1,67.5z"/>
<path class="st2" d="M86.2,198.3c0.1,0.1,0.2,0.2,0.3,0.4c-0.1,0.1-0.2,0.2-0.4,0.2c0,0-0.2-0.1-0.2-0.2
	C86,198.6,86.1,198.5,86.2,198.3z"/>
<path class="st3" d="M63.8,56.8c-0.2,0-0.3,0-0.5,0.1c0-0.2,0-0.3,0-0.4c0,0,0.2-0.1,0.2,0C63.7,56.5,63.7,56.7,63.8,56.8z"/>
<path class="st4" d="M287.7,184.3c-0.2,0.1-0.4,0.4-0.6,0.3c-0.6,0-0.7-0.5-0.8-1c-0.1-0.5,0-0.7,0.6-0.5
	C287.3,183.4,287.7,183.6,287.7,184.3z"/>
<path class="st5" d="M118.2,142.6c0-4.2,0-8.3,0-12.5c0.5-0.6,0.5-1.3,0-1.9c0-4.7-0.1-9.4-0.1-14c0-15.3,0-30.5,0.1-45.8
	c0-1.8-0.1-3.6,0.5-5.3c1-1.1,1.8-2,3.3-0.4c0.8,0.8,1.9,1.3,2.9,1.9c0.5,0.9,0.9,1.9,1.5,2.8c0.4,0.6,1.2,0.8,1.8,0.4
	c0.8-0.5,0.4-1.2-0.1-1.7c-0.9-0.9-1.8-1.7-2.8-2.5c-0.1-0.3-0.3-0.7-0.4-1c-0.1-1.3,1.8-1.3,1.7-2.6c0.5-0.1,1-0.1,1.5-0.2
	c5.7,0.1,11.4,0,17.2,0.4c4.2,0.3,8.5-0.4,12.8-0.4c8.4-0.1,16.7-0.1,25.1-0.1c1.6,0,3.2-0.2,4.6-0.9c3.7,0.1,7.3,0.3,11,0.2
	c2.8-0.1,3.1,0.9,1.9,3.1c-3.4,2-6,4.9-8.5,7.8c-1.7,1.9-3.4,2.3-5.8,2.7c-3.5,0.5-6.9,0-10.4-0.1c-12.5-0.4-25,0.7-37.6,0
	c-1.2-0.1-2.4,0.3-3.5,0.4c-1.3,0.1-1.7,0.9-1.7,2c-0.1,3.2-0.3,6.3-0.2,9.5c0.2,7.5,0.6,14.9,0.6,22.4c0,5.4-0.3,10.7-0.4,16.1
	c0,0.9-0.5,2.2,0.8,2.6c1.3,0.4,2.3-0.5,2.7-1.5c0.8-1.9,2.5-2.7,3.8-4c2-1.8,5.1-1.6,6.6-4c15-0.1,30-0.2,45.1-0.3
	c1.3,0,3.1-0.5,2.5,2c-1,1.9-2.4,3.4-4.1,4.7c-1.6,1.3-3.2,2.8-4.4,4.4c-1.2,1.8-2.6,2.3-4.7,2.3c-15.1-0.1-30.3-0.1-45.4-0.2
	c-2.1,0-3,0.5-3,2.8c-0.1,13.2-0.4,26.5-0.5,39.7c-0.1,4.8,0,9.5,0,14.3c-0.3,0-0.5,0-0.8,0.1c0.5-5.7-1-11.1-3-16.3
	c-0.5-1.4-0.9-2.2-2.7-1.3c-2.4,1.2-4.7,2.1-5,5.3c-0.1,0.8-0.7,1.6-1.6,1.5c-1.1-0.2-0.6-1.3-0.7-2c-0.2-2.4,0.5-4.8-0.4-7.1
	c0-3.9,0-7.8-0.1-11.7c0.6-1.9,0.6-3.7,0-5.6c0-1.3,0-2.7,0-4C118.6,143.8,118.6,143.2,118.2,142.6z"/>
<path class="st6" d="M147,116c-1.5,2.4-4.6,2.2-6.6,4c-1.4,1.3-3,2.1-3.8,4c-0.4,0.9-1.4,1.9-2.7,1.5c-1.3-0.4-0.8-1.7-0.8-2.6
	c0.1-5.4,0.5-10.7,0.4-16.1c-0.1-7.5-0.5-14.9-0.6-22.4c-0.1-3.2,0.2-6.3,0.2-9.5c0-1.1,0.4-1.9,1.7-2c1.2-0.1,2.4-0.5,3.5-0.4
	c12.5,0.6,25-0.5,37.6,0c3.5,0.1,6.9,0.6,10.4,0.1c2.4-0.3,4.1-0.8,5.8-2.7c2.5-2.9,5.2-5.8,8.5-7.8c0,6.9,0,13.7,0.1,20.6
	c0.1,2.7-1.5,2.8-3.5,2.8c-12,0-23.9,0-35.9,0c-4.2,0-8.4,0-12.6,0c-1.9,0-3.2,0.8-3.2,2.7C145.7,97.5,145.8,106.8,147,116z"/>
<path class="st5" d="M197.5,165.1c0.2-0.2,0.4-0.4,0.7-0.7c0.2-0.2,0.4-0.4,0.6-0.6c0,0,0,0,0,0c0.2-0.2,0.4-0.4,0.6-0.6
	c0,0,0,0,0,0c0.2-0.2,0.4-0.4,0.6-0.6c0,0,0,0.1,0,0.1c0.2-0.2,0.4-0.4,0.6-0.7c0,0-0.1,0-0.1,0c0.2-0.2,0.4-0.5,0.6-0.7
	c0,0-0.1,0.1-0.1,0.1c0.9,0.2,1.5-0.4,2.1-0.9c5.3-5.5,11.1-10.6,15.9-16.6c2.4-3.1,5.5-5.7,7.1-9.3c1.3-0.5,2.6-0.1,3.9,0
	c0,0,0,0,0,0c0.2,0.2,0.4,0.4,0.6,0.6c0,0,0,0,0,0c0.2,0.2,0.4,0.4,0.6,0.6c0,0,0,0,0,0c0,2.3,0.2,4.6,0.7,6.8c0,0,0,0,0,0
	c-0.7,0.1-0.8,0.6-0.8,1.1c0,0,0-0.1,0-0.1c-0.8,0-1.2,0.5-1.2,1.3c0,0,0-0.1,0-0.1c-0.2,0.2-0.4,0.5-0.6,0.7c0,0,0,0,0,0
	c-0.2,0.2-0.3,0.4-0.5,0.6c0,0-0.1,0.1-0.1,0.1c-0.1,0.2-0.3,0.3-0.4,0.5c0,0.1-0.1,0.2-0.2,0.3c-0.1,0.2-0.2,0.3-0.4,0.5l-0.2-0.2
	c0,0,0.2,0.2,0.2,0.2c-0.4,0.1-0.5,0.3-0.5,0.6c0,0-0.1,0.1-0.1,0.1c-1.1-0.1-1.4,0.6-1.5,1.5c0,0,0.1-0.1,0.1-0.1
	c-0.2,0.2-0.4,0.5-0.7,0.7c0,0,0.1-0.1,0.1-0.1c-0.2,0.2-0.4,0.5-0.7,0.7c0,0,0.1-0.1,0.1-0.1c-0.2,0.2-0.4,0.4-0.5,0.6
	c-1,1-2,2.1-3,3.1c-0.4,0-0.6,0.3-0.6,0.7c0,0,0.1-0.1,0.1-0.1c-0.4,0-0.6,0.2-0.6,0.7c0,0,0,0,0,0c-0.7-0.1-0.9,0.4-0.9,1
	c0,0,0,0,0,0c-0.8,0.1-1.3,0.4-1.2,1.3l0,0c-2.3,0.1-3.4,1.4-3.7,3.6c0,0,0,0,0,0c-0.7,0.1-1.2,0.4-1.2,1.2c0,0-0.2,0.1-0.2,0.1
	c-0.4,0.1-0.7,0.3-0.8,0.8c0,0,0.1-0.1,0.1-0.1c-0.2,0.2-0.4,0.4-0.7,0.6c-6.7,7.5-13.7,14.7-21,21.5c-0.2,0.2-0.4,0.4-0.6,0.6
	c0,0,0.1-0.1,0.1-0.1c-0.2,0.2-0.5,0.5-0.7,0.7c0,0,0,0,0,0c-1.4-0.1-2.5,0-2.4,1.9c0,0,0,0,0,0c-1.7-0.2-2.8,0.9-3.7,2.1
	c-2.4-0.1-4.5-1.6-6.8-2.1c-1.3-0.3-0.4-1.3,0-1.8c1.5-1.6,3-3.1,4.6-4.6c5.5-5.3,9.9-11.8,15.9-16.6
	C197.2,165.4,197.4,165.3,197.5,165.1z"/>
<path class="st7" d="M144.1,206.3c-2.8,4-5.4,7.6-7.9,11.3c-0.6,0.8-1.1,1.7-1.7,2.4c-2.8,3-3.8,2.9-5.6-0.7
	c-2.4-4.6-5.9-8.4-8.9-12.6c4.1-1,7.6-3.2,10.6-6c1.1-1,1.4-1.1,2.7,0C136.2,203.5,139.1,206.9,144.1,206.3z"/>
<path class="st1" d="M233.4,193c0.3-0.2,0.6-0.5,0.8-0.7c0-0.3,0.2-0.5,0.4-0.7c1.9-1.9,3.6-4.1,5.2-6.3c1.5-2.1,3.1-4.1,4.4-6.4
	c0.7-1.2,1.4-2.4,2-3.6c0.1-0.2,0.2-0.4,0.3-0.6c-0.9,1.6-1.9,3.2-2.9,4.8c-3.2,5.2-7.2,9.8-11.3,14.3
	C232.7,193.6,233.1,193.3,233.4,193z"/>
<path class="st1" d="M253.3,161.5c-0.8,2-1.7,3.9-2.7,5.8c0.2-0.3,0.5-0.5,0.8-0.7c0.2-0.4,0.4-0.9,0.6-1.3c0.8-1.9,1.3-3.9,2.5-5.7
	c0,0,0-0.1,0.1-0.1c0,0,0,0,0,0c0-0.3,0.1-0.6,0.2-1C254.2,159.5,253.8,160.5,253.3,161.5z"/>
<path class="st7" d="M170.2,195c5.8-0.9,5.2,3.6,5.8,6.8c0.3,1.8,0.8,2.5,2.6,2.3c1-0.1,2,0,3,0c5.2,0.1,5.1,0.1,5.4,5.3
	c0.1,2-0.5,2.9-2.4,3.4c-3.6,0.9-7.2,1.9-10.5,3.6c-1.3,0.6-2.2,0.8-3.1-1.1c-0.9-2-2.1-4.4-4.9-4.3
	C167.6,205.5,168.9,200,170.2,195z M174.7,213.7c3.4-0.2,6.3-1.6,9.4-2.7c1.2-0.4,2-1.5,1.3-2.8c-0.7-1.2-1.9-1.4-3.1-0.6
	C179.5,209.2,176.9,211.2,174.7,213.7z"/>
<path class="st8" d="M258.4,142.4c-0.8,1.4-1.5,3.1-3,3.9c-1.1,0.6-1.8-0.9-2.5-1.6c-6.2-6-12.3-11.9-18.4-17.9
	c-1.2-1.2-2.3-2.4-1-4.1c1.3-1.7,2.6-0.4,3.9,0.1c2.7,1,4.8,2.8,6.8,4.7c4.3,4.3,8.6,8.6,12.9,12.9
	C257.7,141,258.4,141.4,258.4,142.4z"/>
<path class="st8" d="M244.5,112.4c1.4,0.4,2.7,1,3.7,1.9c6.4,5.4,12,11.6,18.1,17.3c2,1.9-0.3,3-1,4.2c-0.9,1.4-1.9,0.4-2.6-0.4
	c-3.9-4.3-8.6-7.7-12.8-11.6c-1.6-1.5-3.4-2.9-5.6-3.7c-1.6-0.6-3.4-2-2.8-4.3C241.8,114,243,113,244.5,112.4z"/>
<path class="st5" d="M187.8,58.7c-1.5,0.7-3,0.9-4.6,0.9c-8.4,0-16.7,0-25.1,0.1c-4.3,0.1-8.6,0.8-12.8,0.4
	c-5.7-0.4-11.4-0.3-17.2-0.4c-0.8-0.7-1.9-0.1-2.8-0.6c11.7-0.7,23.4-0.4,35.1-0.2c7.3,0.2,14.7-0.4,22-0.3
	C184.2,58.6,186,58.6,187.8,58.7z"/>
<path class="st1" d="M258.7,94c-0.8,0.1-1.6,0.5-2.4,0.7c-0.2,0.1-0.5,0.1-0.7,0.1c-0.4,0.2-0.8,0.3-1.3,0.4c-0.1,0-0.2,0.1-0.2,0.1
	c-0.9,0.7-1.6,1.1-2.8,0.8c-0.9-0.2-1.3-0.9-1.6-1.7c-0.3-0.7-0.6-1.5-0.9-2.2c-0.1-0.3-0.3-0.6-0.4-0.9c-0.4-0.9-0.8-1.9-1.3-2.8
	c-0.2-0.4-0.3-0.8-0.1-1.2c-0.3-0.1-0.7-0.1-1.1,0c1.4,2.8,3,5.6,4.2,8.5c0.7,1.6,1.5,1.4,2.5,0.7c2.6-1.8,5.6-2.3,8.6-2.3
	C260.4,94,259.5,93.9,258.7,94z"/>
<path class="st5" d="M226.1,134.5c-1.6,3.7-4.7,6.3-7.1,9.3c-4.8,6-10.6,11.1-15.9,16.6c-0.6,0.6-1.2,1.1-2.1,0.9
	c2.3-3.2,5.2-5.9,8.1-8.7c5.9-5.7,10.8-12.4,16.6-18.2c0,0,0.2,0,0.2,0L226.1,134.5z"/>
<g>
	<path class="st9" d="M272.5,123.3c-0.5,2.3-1.5,1.1-2.4,0.3c-4.5-4.4-9.1-8.6-13.9-12.6c-0.2-0.2-0.5-0.4-0.6-0.6
		c-0.5-1.3-3.6-0.4-2.6-2.7c1-2.3,2.9-4,5.7-4.2c7.5-0.6,13.3,3.3,16.3,10.8c-4.3,0.8-5.4,2.6-3.8,6.5
		C271.5,121.6,272.1,122.4,272.5,123.3z"/>
	<path class="st9" d="M272.5,123.3c-0.4-0.9-1-1.7-1.3-2.6c-1.5-3.9-0.5-5.7,3.8-6.5C277,118,274.9,120.6,272.5,123.3z"/>
</g>
<g>
	<g>
		<path class="st10" d="M225.3,78.4c4,5.2,8.4,10.2,11.8,15.8c1.7,2.7,2.6,6.2,4.1,9.2c0.4,0.9-0.2,1.3-0.6,1.8
			c-4.3,4.6-8.7,9-13,13.6c-4.3,4.6-7.9,9.9-12.2,14.6c-3.4,3.6-7,7.1-10,11.1c-0.5,0.7-1.1,1.5-2.2,1.7c-0.8-1-0.8-2.3-0.8-3.6
			c0-8.5-0.1-17,0.4-25.4c0.1-1,0.1-2,0.1-3c-0.1-4.8-2.3-7.1-7.1-7.1c-12.9,0-25.7,0-38.6,0.1c-2,0-2.9-0.3-2.7-2.5
			c0.2-2.7,0.2-5.4,0-8.1c-0.1-2.1,0.7-2.7,2.6-2.5c5.4,0.5,10.8,0.4,16.1,0.4c9.9,0,19.7,0,29.6,0c3.7,0,5.9-1.7,6.6-5.4
			c0.2-1,0.2-2,0.2-3c2.3,1.4,1.1,3.3,0.5,4.9c-0.9,2.1-2,4.2-1.6,6.6c0.4,1.9,0.3,3.7,0.3,5.6c0.1,2.8,0.4,5.5,3.6,7.5
			c2.4,1.4,3.9,0.1,5.7-0.1c4.3-0.3,6.3-4.2,9.4-6.5c0.7-0.5,1.1-1.8,2.1-2.4c1.2-0.6,1.5-1.8,1.5-3c-0.1-2.4,0.1-4.7,1-7
			c0.4-1,0.5-2.1-1.1-2.6C226.6,87.8,224.1,82.9,225.3,78.4z"/>
		<path class="st10" d="M225.3,78.4c-1.3,4.6,1.3,9.4,5.7,10.7c1.6,0.5,1.4,1.6,1.1,2.6c-0.9,2.3-1.1,4.6-1,7c0,1.3-0.3,2.4-1.5,3
			c-1,0.6-1.4,1.8-2.1,2.4c-3,2.3-5,6.2-9.4,6.5c-1.9,0.1-3.3,1.5-5.7,0.1c-3.3-2-3.6-4.7-3.6-7.5c0-1.9,0.1-3.7-0.3-5.6
			c-0.4-2.4,0.7-4.4,1.6-6.6c0.7-1.6,1.8-3.5-0.5-4.9c-0.2-3.4-0.6-6.8-0.2-10.2c0.8,0,1.5-0.3,2-1c1.3-1.8,3.3-2.6,5.2-3.5
			C220.3,72.8,223,75.3,225.3,78.4z"/>
	</g>
	<path class="st10" d="M216.6,71.4c-1.9,0.9-3.9,1.7-5.2,3.5c-0.5,0.7-1.2,1-2,1c-0.3-2.2-0.2-4.3-0.1-6.5c0.1-2.4,1.3-2,2.5-1.1
		C213.3,69.5,215,70.4,216.6,71.4z"/>
</g>
<path class="st5" d="M125.3,59.1c0.9,0.4,2-0.1,2.8,0.6c-0.5,0.1-1,0.1-1.5,0.2c-1,0-2.3-0.6-2.9,0.6c-0.5,0.9,0.4,1.6,1.2,2.1
	c0.1,0.3,0.3,0.7,0.4,1c-0.2,0.3-0.3,0.7-0.5,1c-1-0.6-2.2-1.1-2.9-1.9c-1.4-1.5-2.3-0.6-3.3,0.4c0-4.2,0-4.2,4-4.1
	C123.5,59,124.4,59,125.3,59.1z"/>
<g>
	<path class="st6" d="M118.2,165.8c0.8,2.3,0.2,4.7,0.4,7.1c0.1,0.7-0.4,1.8,0.7,2c0.9,0.1,1.5-0.7,1.6-1.5c0.3-3.1,2.6-4.1,5-5.3
		c1.8-0.9,2.2-0.1,2.7,1.3c2,5.2,3.5,10.6,3,16.3c0.3,0,0.5,0,0.8-0.1c0-4.8-0.1-9.5,0-14.3c0.2-13.2,0.4-26.5,0.5-39.7
		c0-2.3,1-2.8,3-2.8c15.1,0.1,30.3,0.1,45.4,0.2c2.1,0,3.5-0.5,4.7-2.3c1.2-1.7,2.8-3.2,4.4-4.4c1.7-1.3,3.1-2.8,4.1-4.7
		c0.5,7.3,0.5,14.5,0.1,21.8c-0.1,2.3-1,3-3.3,3c-11.5,0.2-22.9,0.5-34.4-0.1c-2.2-0.1-4.4-0.1-6.6,0c-4,0.1-4.2,0.3-4.4,4.1
		c-0.8,15.4-0.3,30.9-0.5,46.3c0,1.4,0.8,3.1-1.1,3.9c-1.8,0.8-3.6,0.8-5.2-0.8c-0.8-0.9-1.7-1.7-2.5-2.6c-3.1-3.3-4.7-3.3-8-0.2
		c-1.3,1.2-2.6,2.5-3.9,3.7c-0.3,0.2-0.6,0.4-0.9,0.6c0,0,0.1,0,0.1,0c-4.1-0.6-4.8-1.4-4.8-5.5c0-2.1,0-4.2,0-6.4
		c-0.1,0-0.3,0-0.4,0c-0.2,0.9-0.4,1.8-0.5,2.7C117.6,180.8,117.9,173.3,118.2,165.8z"/>
	<path class="st6" d="M118.3,188.3c0.2-0.9,0.4-1.8,0.5-2.7c0.1,0,0.3,0,0.4,0c0,2.1,0,4.2,0,6.4c0,4.1,0.7,4.9,4.8,5.5
		c-2.5,2.2-3.9,2.1-5.5-0.2c0.1-0.2,0.1-0.3-0.1-0.5c0-0.3,0-0.6-0.1-0.9c0-0.1,0.1-0.2,0.1-0.3c0-0.2-0.1-0.3-0.2-0.5
		C118.3,192.8,118.3,190.5,118.3,188.3z"/>
</g>
<path class="st1" d="M210.7,210.9c0.6-0.3,1.3-0.5,1.9-0.9c0.6-0.3,1-0.8,1.5-1.2c1-0.7,2.3-0.9,3.3-1.7c0.2-0.2,0.5-0.3,0.7-0.3
	c0,0,0,0,0,0c0,0,0,0,0,0c0.1-0.1,0.3-0.2,0.4-0.2c0,0,0,0,0,0c0-0.1,0-0.2,0-0.3c-3.6,2-7.3,4-10.9,6c0,0,0,0,0,0
	C208.7,211.8,209.7,211.3,210.7,210.9z"/>
<path class="st5" d="M232,142.5c-0.5-2.3-0.8-4.5-0.7-6.8c0.4,0.4,0.9,0.8,1.4,1.1c1.8,1.2,2.5,2.4,0.5,4.1
	C232.6,141.3,232.3,142,232,142.5z"/>
<path class="st5" d="M226.1,134.5l-0.2,0c0,0-0.2,0-0.2,0c1.7-2.9,1.7-2.9,4.3,0C228.7,134.4,227.4,134,226.1,134.5z"/>
<path class="st5" d="M214.4,161.5c0.2-2.2,1.4-3.5,3.7-3.6C217,159.3,215.8,160.5,214.4,161.5z"/>
<path class="st5" d="M183.3,190.7c0.9-1.2,2-2.3,3.7-2.1C186,189.7,184.8,190.5,183.3,190.7z"/>
<path class="st5" d="M118.2,148.5c0.6,1.9,0.6,3.7,0,5.6C117.9,152.2,117.9,150.4,118.2,148.5z"/>
<g>
	<path class="st10" d="M136.6,234.2c1.5-0.4,3.2-0.4,4.7-0.6c3.6-0.4,7.1-0.7,10.7-1.1c1.1-0.1,2.3-0.3,3.4-0.5
		c-1-0.2-1-1.4-0.4-3.6c2.5-9.2,4.2-18.5,5.4-27.9c0.9-7,3.3-13.1,8.3-18.1c8.7-8.8,17.4-17.8,26-26.7c1-1,3.1-2,2.5-3.3
		c-0.6-1.2-2.8-1-4.4-1c-0.5,0-1,0-1.5,0c-11.2,0.2-22.3,0.6-33.5,0.5c-2.8,0-3.3,0.6-3.4,3.1c-0.1,12.6-0.4,25.1-0.6,37.7
		c0.7,2.4,0.7,4.8,0,7.2c0,0.8,0,1.6,0,2.4c0.6,1.6,1.1,3.2-0.4,4.7c-0.6,1.7-1.3,3.3-2.3,4.8c-5.3,7.7-10.5,15.4-15.8,23.1
		C135.8,234.5,136.2,234.3,136.6,234.2z M167.5,162.2c1.9,0.5,2.4,2.1,2.6,3.6c0,2.3-1.1,3.9-2.9,4.1c-1.8,0.2-2.9-1.6-3.1-3.4
		C163.9,164.9,166.3,161.9,167.5,162.2z"/>
	<path class="st10" d="M154,192.6c0.7,2.4,0.7,4.8,0,7.2C154,197.4,154,195,154,192.6z"/>
	<path class="st10" d="M154,202.2c0.6,1.6,1.1,3.2-0.4,4.7C153.7,205.4,153.9,203.8,154,202.2z"/>
</g>
<path class="st5" d="M187,188.7c-0.2-1.9,1-2,2.4-1.9C188.6,187.4,187.8,188,187,188.7z"/>
<g>
	<g>
		<path class="st10" d="M109,81.8c0,9.8,0,19.6,0,29.4c-2,0.3-1.7,1.8-1.8,3.2c-0.1,5.3-1.7,7.5-6.6,9.1c-0.7,0.2-1.4,0.3-1.8,1
			c-2.5,0.2-4.5,1.7-4.1,4c0.3,1.8,2.1,3.6,4.7,2.9c2.3,0.8,3.7,2.8,5.5,4.2c2,1.5,2.4,2.8,0.7,4.6c-0.8,0.8-1.8,1.7-1.2,2.8
			c1.6,2.8,1.2,5.7,0.5,8.6c-0.2,0.7,0,1.7,0.4,2.3c1.4,2.1,2.1,4.1,0.2,6.3c-0.4,0.5-0.6,1.3-0.3,2c1.6,2.6,0.7,5.8,1.7,8.3
			c2.1,4.7,0.1,9-0.5,13.4c-0.1,1.1-0.9,1.7-2.1,1.7C84.9,163.6,77.8,126.4,93,98c1,0.1,1.7-0.3,2-1.3c0.2-0.8-0.4-1-1-1.1
			c0-0.9,0.5-1.5,1.2-1.9c0.3,0.3,0.6,0.6,0.9,0.2c0.4-0.5,0.1-1.1-0.2-1.6l0-0.2c0,0,0.2-0.1,0.2-0.1c2.6,0.3,2.9-1,2.1-3.1
			c0.3-1,0.8-1.8,1.6-2.5c1.7,0,2.1-1.1,1.9-2.5c0.2-0.2,0.3-0.3,0.5-0.5c0.9,0,1.9-0.2,2.4-0.9C105.9,80.9,107.4,81.3,109,81.8z"/>
		<path class="st10" d="M98.8,124.5c0.4-0.7,1.1-0.8,1.8-1c4.9-1.6,6.5-3.8,6.6-9.1c0-1.4-0.2-2.9,1.8-3.2c0,22.2,0,44.4,0.1,66.7
			c0,3.5,0.3,7,0.4,10.4c0,0.6,0.4,1.5-0.5,1.8c-0.8,0.2-1.3-0.4-1.7-0.9c-1-1.2-1.9-2.5-2.9-3.7c1.2,0,2-0.6,2.1-1.7
			c0.6-4.4,2.5-8.6,0.5-13.4c-1.1-2.4-0.2-5.7-1.7-8.3c-0.4-0.7-0.2-1.5,0.3-2c2-2.2,1.2-4.2-0.2-6.3c-0.4-0.6-0.6-1.6-0.4-2.3
			c0.7-2.9,1.1-5.8-0.5-8.6c-0.6-1.1,0.4-2,1.2-2.8c1.7-1.8,1.3-3.1-0.7-4.6c-1.8-1.4-3.2-3.4-5.5-4.2
			C103,127.7,103,127.3,98.8,124.5z"/>
		<path class="st10" d="M109,81.8c-1.6-0.5-3.1-0.9-4.4,0.9c-0.5,0.7-1.5,0.9-2.4,0.9c1.9-2.6,3.7-5.3,6.8-7.6
			C109,78.2,109,80,109,81.8z"/>
	</g>
	<path class="st10" d="M98.2,89c0.8,2,0.5,3.4-2.1,3.1C96.8,91.1,97.5,90.1,98.2,89z"/>
	<path class="st10" d="M94,95.6c0.6,0.1,1.2,0.3,1,1.1c-0.3,1-1,1.4-2,1.3C92.9,97,93.3,96.2,94,95.6z"/>
	<path class="st10" d="M101.8,84.1c0.1,1.4-0.2,2.5-1.9,2.5C100.2,85.5,100.9,84.7,101.8,84.1z"/>
	<path class="st10" d="M96,92.4c0.3,0.5,0.6,1,0.2,1.6c-0.3,0.4-0.7,0.1-0.9-0.2C95.4,93.2,95.7,92.8,96,92.4z"/>
</g>
<path class="st5" d="M118.2,142.6c0.5,0.6,0.5,1.3,0,1.9C118.2,143.8,118.2,143.2,118.2,142.6z"/>
<path class="st5" d="M118.1,128.2c0.5,0.6,0.5,1.3,0,1.9C118.1,129.5,118.1,128.8,118.1,128.2z"/>
<path class="st5" d="M225.8,149.6c0-1,0.4-1.6,1.5-1.5C226.8,148.6,226.3,149.1,225.8,149.6z"/>
<path class="st5" d="M213.2,162.7c0.1-0.8,0.5-1.1,1.2-1.2C214,161.9,213.6,162.3,213.2,162.7z"/>
<path class="st5" d="M218,158c0-0.9,0.4-1.2,1.2-1.3C218.8,157.1,218.4,157.5,218,158z"/>
<path class="st5" d="M230,144.8c0-0.8,0.4-1.2,1.2-1.3C230.8,143.9,230.4,144.4,230,144.8z"/>
<path class="st5" d="M231.2,143.6c0-0.5,0.2-1,0.8-1.1C231.7,142.8,231.4,143.2,231.2,143.6z"/>
<path class="st5" d="M219.2,156.7c0.1-0.5,0.2-1,0.9-1C219.8,156.1,219.5,156.4,219.2,156.7z"/>
<path class="st11" d="M197,192.6c-0.2,0.2-0.4,0.4-0.7,0.6C196.6,193,196.8,192.8,197,192.6z"/>
<path class="st11" d="M196.4,193.2c-0.2,0.2-0.4,0.4-0.7,0.6C196,193.6,196.2,193.4,196.4,193.2z"/>
<path class="st11" d="M195.8,193.8c-0.2,0.2-0.4,0.4-0.7,0.6C195.4,194.2,195.6,194,195.8,193.8z"/>
<path class="st3" d="M197.5,165.1c-0.2,0.2-0.4,0.4-0.6,0.5C197.2,165.4,197.4,165.3,197.5,165.1z"/>
<path class="st11" d="M195.2,194.4c-0.2,0.2-0.4,0.4-0.6,0.6C194.8,194.8,195,194.6,195.2,194.4z"/>
<path class="st3" d="M198.8,163.8c-0.2,0.2-0.4,0.4-0.6,0.6C198.4,164.2,198.6,164,198.8,163.8z"/>
<path class="st12" d="M118.3,195.1c0.1,0.2,0.2,0.3,0.2,0.5c0,0.1-0.1,0.2-0.1,0.3c-0.1-0.2-0.2-0.3-0.2-0.5
	C118.1,195.3,118.2,195.1,118.3,195.1z"/>
<path class="st12" d="M118.4,196.7c0.1,0.2,0.2,0.3,0.1,0.5c-0.1-0.1-0.1-0.2-0.2-0.3C118.3,196.9,118.4,196.8,118.4,196.7z"/>
<path class="st13" d="M124,197.5c0.3-0.2,0.6-0.4,0.9-0.6C124.6,197,124.3,197.3,124,197.5z"/>
<path class="st14" d="M211.6,164.1c0.2-0.2,0.4-0.4,0.7-0.6C212,163.6,211.8,163.8,211.6,164.1z"/>
<path class="st3" d="M199.3,163.2c-0.2,0.2-0.4,0.4-0.6,0.6C198.9,163.6,199.1,163.4,199.3,163.2z"/>
<path class="st5" d="M212.2,163.5c0.1-0.5,0.4-0.7,0.8-0.8C212.7,163,212.4,163.3,212.2,163.5z"/>
<path class="st3" d="M199.9,162.6c-0.2,0.2-0.4,0.4-0.6,0.6C199.5,163,199.7,162.8,199.9,162.6z"/>
<path class="st5" d="M220.6,155.2c0-0.4,0.2-0.6,0.6-0.7C221,154.7,220.8,155,220.6,155.2z"/>
<path class="st14" d="M224.2,151.4c0.2-0.2,0.4-0.4,0.5-0.6C224.5,151,224.4,151.2,224.2,151.4z"/>
<path class="st2" d="M189.9,186.2c0.2-0.2,0.4-0.4,0.6-0.6C190.3,185.8,190.1,186,189.9,186.2z"/>
<path class="st14" d="M231.2,135.7c-0.2-0.2-0.4-0.4-0.6-0.6C230.8,135.3,231,135.5,231.2,135.7z"/>
<path class="st5" d="M227.3,148c-0.1-0.4,0.1-0.6,0.5-0.6C227.7,147.6,227.5,147.8,227.3,148z"/>
<path class="st14" d="M227.8,147.4c0.1-0.2,0.2-0.3,0.4-0.5C228.1,147,227.9,147.2,227.8,147.4z"/>
<path class="st3" d="M201.1,161.3c-0.2,0.2-0.4,0.5-0.6,0.7C200.7,161.8,200.9,161.5,201.1,161.3z"/>
<path class="st14" d="M230.6,135.1c-0.2-0.2-0.4-0.4-0.6-0.6C230.2,134.7,230.4,134.9,230.6,135.1z"/>
<g>
	<path class="st6" d="M194,195.7c0.2-0.2,0.4-0.5,0.6-0.7c0.2-0.2,0.4-0.4,0.6-0.6c0,0,0,0,0,0c0.2-0.2,0.4-0.4,0.7-0.6
		c0,0-0.1,0-0.1,0c0.2-0.2,0.4-0.4,0.7-0.6c0,0,0,0.1,0,0.1c0.2-0.2,0.4-0.4,0.7-0.6c0,0-0.1,0-0.1,0c0.2-0.2,0.4-0.5,0.6-0.7
		c0.2-0.2,0.3-0.3,0.5-0.5c0.6,0,1-0.2,1.3-0.7c0,0-0.1,0-0.1,0c0.8-0.2,1.3-0.7,1.3-1.5c1.4-0.8,2.4-2,3.2-3.2
		c1-0.2,1.6-0.7,1.6-1.7c0,0,0,0,0,0c0.2-0.2,0.4-0.4,0.6-0.6c0,0,0,0,0,0c4.7-3.3,8.7-7.3,12-12c0,0,0,0,0,0c0.9-0.3,1.5-1,1.8-1.9
		c0,0,0,0,0,0c0.9-0.3,1.5-1,1.8-1.8c0,0,0,0,0,0c0.4,0,0.6-0.2,0.6-0.6c0,0,0,0,0,0c0.4,0,0.6-0.2,0.6-0.6c0,0,0,0,0,0
		c3.9-2.5,7-5.8,9.6-9.6c0,0,0,0,0,0c3.6-1.2,5.9-3.7,7.2-7.2c0,0,0,0,0,0c0.2-0.3,0.4-0.6,0.6-0.8c1.1-0.9,1.7-2.8,3.9-1.7
		c2.2,1.1,3.8,2.8,5,4.9c0.3,0.6-0.5,1-0.9,1.4c-16.6,16.8-33.2,33.6-49.8,50.3c-1.2,1.2-2.4,2.6-4.3,1.1c0.1-0.9,0-1.7-1.1-1.8
		c0,0,0,0,0,0c-0.3-1.6-0.6-3.1-0.9-4.7c0.3-0.5,0.6-1.1,1-1.6c0.1-0.2,0.2-0.3,0.3-0.5c0,0,0.1-0.1,0.1-0.1
		C193.7,196.5,193.9,196.1,194,195.7z"/>
	<path class="st6" d="M218,171.6c-3.3,4.7-7.3,8.7-12,12C209.6,179.3,213.5,175.2,218,171.6z"/>
	<path class="st6" d="M232.3,157.3c-2.6,3.8-5.7,7.1-9.6,9.6C225.6,163.3,228.4,159.7,232.3,157.3z"/>
	<path class="st6" d="M239.5,150.1c-1.3,3.5-3.6,6-7.2,7.2C234.6,154.7,236.9,152.2,239.5,150.1z"/>
	<path class="st6" d="M191.9,198.7c0.3,1.6,0.6,3.1,0.9,4.7C191.8,202,191.3,200.5,191.9,198.7z"/>
	<path class="st6" d="M205.4,184.2c-0.1,1-0.7,1.6-1.6,1.7C204.1,185.2,204.3,184.3,205.4,184.2z"/>
	<path class="st6" d="M219.8,169.8c-0.3,0.9-0.9,1.5-1.8,1.9C218.1,170.6,218.6,169.9,219.8,169.8z"/>
	<path class="st6" d="M221.6,168c-0.3,0.9-1,1.5-1.8,1.8C219.7,168.7,220.5,168.1,221.6,168z"/>
	<path class="st6" d="M192.8,203.4c1.2,0.1,1.3,0.9,1.1,1.8C193.3,204.8,192.7,204.4,192.8,203.4z"/>
	<path class="st6" d="M200.5,189.2c0,0.9-0.4,1.3-1.3,1.5C199.2,189.8,199.9,189.5,200.5,189.2z"/>
	<path class="st6" d="M199.4,190.7c-0.3,0.5-0.7,0.7-1.3,0.7C198.4,191,198.7,190.5,199.4,190.7z"/>
	<path class="st6" d="M194,195.7c-0.1,0.5-0.3,0.8-0.8,0.9C193.5,196.3,193.7,196,194,195.7z"/>
	<path class="st6" d="M222.1,167.4c0,0.4-0.3,0.6-0.6,0.6C221.4,167.5,221.6,167.3,222.1,167.4z"/>
	<path class="st6" d="M222.7,166.8c0,0.4-0.2,0.6-0.6,0.6C222,166.9,222.2,166.7,222.7,166.8z"/>
	<path class="st6" d="M193.1,196.7c-0.1,0.2-0.2,0.3-0.3,0.5C192.9,196.9,193,196.8,193.1,196.7z"/>
	<path class="st6" d="M206,183.6c-0.2,0.2-0.4,0.4-0.6,0.6C205.3,183.7,205.4,183.4,206,183.6z"/>
</g>
<path class="st14" d="M228.4,146.6c0.1-0.2,0.3-0.3,0.4-0.5C228.7,146.3,228.6,146.4,228.4,146.6z"/>
<path class="st3" d="M200.5,162c-0.2,0.2-0.4,0.5-0.6,0.7C200.1,162.4,200.3,162.2,200.5,162z"/>
<path class="st5" d="M220.1,155.8c0-0.4,0.2-0.7,0.6-0.7C220.5,155.3,220.3,155.6,220.1,155.8z"/>
<path class="st14" d="M224.6,150.9c0.2-0.2,0.4-0.5,0.7-0.7C225.1,150.4,224.8,150.6,224.6,150.9z"/>
<path class="st14" d="M229,146c0.2-0.2,0.3-0.4,0.5-0.6C229.3,145.6,229.1,145.8,229,146z"/>
<path class="st13" d="M240.1,149.3c-0.2,0.3-0.4,0.6-0.6,0.8C239.7,149.8,239.9,149.6,240.1,149.3z"/>
<path class="st14" d="M229.5,145.4c0.2-0.2,0.4-0.5,0.6-0.7C229.9,145,229.7,145.2,229.5,145.4z"/>
<path class="st11" d="M197.6,191.9c-0.2,0.2-0.4,0.5-0.6,0.7C197.2,192.4,197.4,192.2,197.6,191.9z"/>
<path class="st2" d="M189.3,186.8c0.2-0.2,0.5-0.5,0.7-0.7C189.8,186.4,189.6,186.6,189.3,186.8z"/>
<path class="st14" d="M225.2,150.2c0.2-0.2,0.4-0.5,0.7-0.7C225.7,149.8,225.4,150,225.2,150.2z"/>
<path class="st0" d="M170.1,165.8c0,2.3-1.1,3.9-2.9,4.1c-1.8,0.2-2.9-1.6-3.1-3.4c-0.2-1.6,2.2-4.6,3.4-4.3
	C169.4,162.7,170,164.3,170.1,165.8z"/>
<path class="st5" d="M124.8,64.5c0.2-0.3,0.3-0.7,0.5-1c0.9,0.8,1.9,1.7,2.8,2.5c0.5,0.5,0.9,1.2,0.1,1.7c-0.6,0.4-1.4,0.2-1.8-0.4
	C125.7,66.4,125.3,65.5,124.8,64.5z"/>
<path class="st5" d="M124.9,62.4c-0.8-0.5-1.7-1.1-1.2-2.1c0.6-1.2,1.9-0.6,2.9-0.6C126.7,61.1,124.8,61.1,124.9,62.4z"/>
<path class="st0" d="M98.8,124.5c4.2,2.9,4.2,3.2,0.6,6.9c-2.6,0.7-4.4-1.2-4.7-2.9C94.3,126.2,96.3,124.6,98.8,124.5z"/>
<path class="st7" d="M174.7,213.7c2.3-2.5,4.8-4.4,7.6-6.1c1.2-0.7,2.4-0.6,3.1,0.6c0.7,1.3-0.1,2.4-1.3,2.8
	C181,212,178,213.5,174.7,213.7z"/>
</svg>
